<svg width="128" height="103" viewBox="0 0 128 103" fill="none" xmlns="http://www.w3.org/2000/svg">
<path d="M8.092 29.9C8.092 33.148 10.62 35.692 14.028 35.692C16.108 35.692 17.852 34.684 18.892 33.164L17.548 32.236C16.796 33.404 15.484 34.156 14.012 34.156C11.676 34.156 9.788 32.38 9.788 29.9C9.788 27.436 11.66 25.644 14.012 25.644C15.436 25.644 16.732 26.412 17.516 27.564L18.86 26.652C17.788 25.132 16.044 24.108 13.996 24.108C10.62 24.108 8.092 26.7 8.092 29.9ZM21.8569 30.62C21.8569 29.436 22.6409 28.62 23.7609 28.62C24.8489 28.62 25.5849 29.42 25.5849 30.572V35.5H27.2009V30.62C27.2009 29.436 27.9849 28.62 29.1049 28.62C30.1929 28.62 30.9289 29.42 30.9289 30.572V35.5H32.5449V30.236C32.5449 28.524 31.3129 27.164 29.5049 27.164C28.3369 27.164 27.3609 27.756 26.8329 28.7C26.3529 27.772 25.3929 27.164 24.1609 27.164C23.2329 27.164 22.4169 27.548 21.8569 28.204V27.34H20.2409V35.5H21.8569V30.62ZM42.7719 35.5V24.3H41.1559V28.364C40.4199 27.612 39.3959 27.164 38.2759 27.164C35.8759 27.164 33.9719 29.068 33.9719 31.436C33.9719 33.788 35.8599 35.692 38.2759 35.692C39.4119 35.692 40.4359 35.228 41.1719 34.476V35.5H42.7719ZM41.1879 31.436C41.1879 33.004 39.9399 34.268 38.3879 34.268C36.8359 34.268 35.5879 33.004 35.5879 31.436C35.5879 29.852 36.8359 28.604 38.3879 28.604C39.9399 28.604 41.1879 29.852 41.1879 31.436ZM51.9735 33.292V30.412H54.8055V29.116H51.9735V26.3H50.6775V29.116H47.8455V30.412H50.6775V33.292H51.9735Z" fill="white"/>
<path d="M77.2996 26.4C77.2996 24.4116 75.688 22.8 73.6996 22.8C71.7112 22.8 70.0996 24.4116 70.0996 26.4V38.4C70.0996 48.3408 78.1588 56.4 88.0996 56.4C98.0404 56.4 106.1 48.3408 106.1 38.4V28.8C106.1 26.8116 104.488 25.2 102.5 25.2C100.511 25.2 98.8996 26.8116 98.8996 28.8V26.4C98.8996 24.4116 97.288 22.8 95.2996 22.8C93.3112 22.8 91.6996 24.4116 91.6996 26.4V24C91.6996 22.0116 90.088 20.4 88.0996 20.4C86.1112 20.4 84.4996 22.0116 84.4996 24V7.19998C84.4996 5.21158 82.888 3.59998 80.8996 3.59998C78.9112 3.59998 77.2996 5.21158 77.2996 7.19998V34.8V26.4Z" stroke="white" stroke-width="2" stroke-miterlimit="10" stroke-linecap="round" stroke-linejoin="round"/>
<path d="M101.3 2.40002V19.2" stroke="#60C2A4" stroke-width="2" stroke-miterlimit="10" stroke-linecap="round" stroke-linejoin="round"/>
<path d="M98.8994 4.80002L101.299 2.40002L103.699 4.80002" stroke="#60C2A4" stroke-width="2" stroke-miterlimit="10" stroke-linecap="round" stroke-linejoin="round"/>
<path d="M98.8994 16.8L101.299 19.2L103.699 16.8" stroke="#60C2A4" stroke-width="2" stroke-miterlimit="10" stroke-linecap="round" stroke-linejoin="round"/>
<path d="M109.699 10.8H92.8994" stroke="#60C2A4" stroke-width="2" stroke-miterlimit="10" stroke-linecap="round" stroke-linejoin="round"/>
<path d="M107.3 8.40002L109.7 10.8L107.3 13.2" stroke="#60C2A4" stroke-width="2" stroke-miterlimit="10" stroke-linecap="round" stroke-linejoin="round"/>
<path d="M95.2994 8.40002L92.8994 10.8L95.2994 13.2" stroke="#60C2A4" stroke-width="2" stroke-miterlimit="10" stroke-linecap="round" stroke-linejoin="round"/>
<path d="M8.092 93.4C8.092 96.632 10.684 99.192 13.996 99.192C17.292 99.192 19.884 96.632 19.884 93.4C19.884 90.184 17.292 87.608 13.996 87.608C10.684 87.608 8.092 90.184 8.092 93.4ZM9.788 93.4C9.788 91.016 11.66 89.144 13.996 89.144C16.332 89.144 18.188 91.016 18.188 93.4C18.188 95.8 16.332 97.656 13.996 97.656C11.66 97.656 9.788 95.8 9.788 93.4ZM25.5248 92.28V90.776H24.9648C24.0687 90.776 23.4128 91.192 23.0127 91.848V90.84H21.4127V99H23.0287V94.36C23.0287 93.096 23.7968 92.28 24.8527 92.28H25.5248ZM26.7602 99H28.3602V97.976C29.0962 98.728 30.1363 99.192 31.2723 99.192C33.6723 99.192 35.5603 97.288 35.5603 94.936C35.5603 92.568 33.6723 90.664 31.2723 90.664C30.1363 90.664 29.1122 91.128 28.3762 91.88V87.8H26.7602V99ZM28.3442 94.936C28.3442 93.352 29.6082 92.104 31.1602 92.104C32.6962 92.104 33.9602 93.352 33.9602 94.936C33.9602 96.504 32.6962 97.768 31.1602 97.768C29.5922 97.768 28.3442 96.504 28.3442 94.936ZM37.7987 89.704C38.3267 89.704 38.7427 89.272 38.7427 88.728C38.7427 88.2 38.3267 87.768 37.7987 87.768C37.2547 87.768 36.8227 88.2 36.8227 88.728C36.8227 89.272 37.2547 89.704 37.7987 89.704ZM38.5987 90.84H36.9827V99H38.5987V90.84ZM43.2262 99H44.7782V97.576H43.7062C43.2102 97.576 42.9062 97.336 42.9062 96.888V92.264H44.7782V90.84H42.9062V88.44H41.2902V90.84H39.7382V92.264H41.2902V97.24C41.2902 98.264 41.9782 99 43.2262 99ZM56.0592 98.168C56.6192 98.792 57.0992 99 57.8672 99H58.7312V97.544H58.1552C57.8192 97.544 57.5312 97.416 57.2112 97.064L56.6352 96.44L58.5872 93.496L57.3392 92.76L55.6592 95.384L53.6592 93.192L54.0112 93C55.3712 92.264 55.9792 91.432 55.9792 90.28C55.9792 88.744 54.7632 87.656 53.0512 87.656C51.3072 87.656 50.0912 88.808 50.0912 90.424C50.0912 91.272 50.4432 92.024 51.2752 92.936L51.1312 93.016C49.5312 93.832 48.8592 94.744 48.8592 96.12C48.8592 97.88 50.3792 99.192 52.4432 99.192C53.7552 99.192 54.7472 98.776 55.6752 97.752L56.0592 98.168ZM52.5552 91.992C51.9632 91.352 51.7072 90.872 51.7072 90.376C51.7072 89.576 52.2512 89.032 53.0512 89.032C53.8032 89.032 54.3792 89.608 54.3792 90.36C54.3792 91.016 54.0272 91.48 53.2112 91.912L52.7152 92.168L52.5552 91.992ZM50.5232 96.056C50.5232 95.304 50.9392 94.712 51.8352 94.232L52.2512 93.992L54.7312 96.712C54.0752 97.448 53.3872 97.752 52.5392 97.752C51.3872 97.752 50.5232 97.016 50.5232 96.056ZM64.7589 99L64.7269 89.96L68.3909 99H69.9109L73.5749 89.944L73.5589 99H75.1909V87.8H72.8389L69.1749 96.872L65.5269 87.8H63.1429V99H64.7589ZM76.5744 96.744C76.5744 98.168 77.7584 99.176 79.3584 99.176C80.4464 99.176 81.3584 98.728 81.9024 97.976C82.1104 98.616 82.6864 99 83.4704 99H84.2704V97.576H83.8544C83.5344 97.576 83.3744 97.416 83.3744 97.112V93.432C83.3744 91.768 82.1744 90.696 80.3344 90.696C79.1184 90.696 78.0464 91.048 77.1984 91.768L77.9184 92.936C78.6064 92.392 79.3264 92.152 80.1104 92.152C81.1824 92.152 81.7904 92.712 81.7904 93.64V94.168L79.2464 94.36C77.5504 94.472 76.5744 95.32 76.5744 96.744ZM78.1264 96.728C78.1264 96.056 78.5904 95.656 79.4864 95.592L81.7904 95.4V96.072C81.7904 97.096 80.8464 97.912 79.6784 97.912C78.7664 97.912 78.1264 97.432 78.1264 96.728ZM85.4621 90.84V102.216H87.0781V97.976C87.8141 98.728 88.8381 99.176 89.9741 99.176C92.3741 99.176 94.2621 97.288 94.2621 94.92C94.2621 92.568 92.3741 90.648 89.9741 90.648C88.8381 90.648 87.7981 91.112 87.0621 91.864V90.84H85.4621ZM87.0461 94.92C87.0461 93.352 88.2941 92.088 89.8621 92.088C91.3981 92.088 92.6621 93.352 92.6621 94.92C92.6621 96.488 91.3981 97.752 89.8621 97.752C88.3101 97.752 87.0461 96.488 87.0461 94.92ZM98.5837 89.272H102.072V99H103.752V89.272H107.256V87.8H98.5837V89.272ZM109.336 89.704C109.864 89.704 110.28 89.272 110.28 88.728C110.28 88.2 109.864 87.768 109.336 87.768C108.792 87.768 108.36 88.2 108.36 88.728C108.36 89.272 108.792 89.704 109.336 89.704ZM110.136 90.84H108.52V99H110.136V90.84ZM113.484 99V87.8H111.868V99H113.484ZM118.111 99H119.663V97.576H118.591C118.095 97.576 117.791 97.336 117.791 96.888V92.264H119.663V90.84H117.791V88.44H116.175V90.84H114.623V92.264H116.175V97.24C116.175 98.264 116.863 99 118.111 99Z" fill="#CDCFD6"/>
</svg>
