<svg width="128" height="103" viewBox="0 0 128 103" xmlns="http://www.w3.org/2000/svg">
<path d="M32.3882 21.6001C32.3882 19.6117 33.9998 18.0001 35.9882 18.0001C37.9766 18.0001 39.5882 19.6117 39.5882 21.6001V24.0001C39.5882 22.0117 41.1998 20.4001 43.1882 20.4001C45.1766 20.4001 46.7882 22.0117 46.7882 24.0001V27.6001V26.3257C46.7882 24.3373 48.3998 22.7257 50.3882 22.7257C52.3766 22.7257 53.9882 24.3373 53.9882 26.3257V38.4001C53.9882 48.3409 45.929 56.4001 35.9882 56.4001C31.0178 56.4001 26.5178 54.3853 23.2598 51.1285L10.3778 34.9069C9.24385 33.4789 9.36143 31.4281 10.6502 30.1381C12.0518 28.7365 14.3234 28.7365 15.725 30.1381L20.795 35.2081C22.4162 36.8293 25.1871 35.6809 25.1871 33.3889V27.6001V7.2001C25.1871 5.2117 26.7987 3.6001 28.7871 3.6001C30.7755 3.6001 32.387 5.2117 32.387 7.2001V24.0001" fill="transparent" stroke="" stroke-width="2" stroke-miterlimit="10" stroke-linecap="round" stroke-linejoin="round"/>
<path d="M6 24L19.2 10.8" stroke="#60C2A4" stroke-width="2" stroke-miterlimit="10" stroke-linecap="round" stroke-linejoin="round"/>
<path d="M19.2004 15.6V10.8H14.4004" stroke="#60C2A4" stroke-width="2" stroke-miterlimit="10" stroke-linecap="round" stroke-linejoin="round"/>
<path d="M6 19.2002V24.0002H10.8" stroke="#60C2A4" stroke-width="2" stroke-miterlimit="10" stroke-linecap="round" stroke-linejoin="round"/>
<path d="M100.388 21.6001C100.388 19.6117 102 18.0001 103.988 18.0001C105.977 18.0001 107.588 19.6117 107.588 21.6001V24.0001C107.588 22.0117 109.2 20.4001 111.188 20.4001C113.177 20.4001 114.788 22.0117 114.788 24.0001V27.6001V26.3257C114.788 24.3373 116.4 22.7257 118.388 22.7257C120.377 22.7257 121.988 24.3373 121.988 26.3257V38.4001C121.988 48.3409 113.929 56.4001 103.988 56.4001C99.0178 56.4001 94.5178 54.3853 91.2598 51.1285L78.3778 34.9069C77.2438 33.4789 77.3614 31.4281 78.6502 30.1381C80.0518 28.7365 82.3234 28.7365 83.725 30.1381L88.795 35.2081C90.4162 36.8293 93.1871 35.6809 93.1871 33.3889V27.6001V7.2001C93.1871 5.2117 94.7987 3.6001 96.7871 3.6001C98.7755 3.6001 100.387 5.2117 100.387 7.2001V24.0001" fill="transparent" stroke="" stroke-width="2" stroke-miterlimit="10" stroke-linecap="round" stroke-linejoin="round"/>
<path d="M82.4004 15.6L87.2004 10.8" stroke="#60C2A4" stroke-width="2" stroke-miterlimit="10" stroke-linecap="round" stroke-linejoin="round"/>
<path d="M74 24.0002L78.8 19.2002" stroke="#60C2A4" stroke-width="2" stroke-miterlimit="10" stroke-linecap="round" stroke-linejoin="round"/>
<path d="M78.8 24.0002V19.2002H74" stroke="#60C2A4" stroke-width="2" stroke-miterlimit="10" stroke-linecap="round" stroke-linejoin="round"/>
<path d="M82.4004 10.8V15.6H87.2004" stroke="#60C2A4" stroke-width="2" stroke-miterlimit="10" stroke-linecap="round" stroke-linejoin="round"/>
<path d="M43.204 89.272H48.9L42.964 97.896V99H51.028V97.528H45.14L51.044 88.936V87.8H43.204V89.272ZM60.3924 94.92C60.3924 92.568 58.4404 90.664 56.0084 90.664C53.5764 90.664 51.6244 92.568 51.6244 94.92C51.6244 97.272 53.5764 99.192 56.0084 99.192C58.4404 99.192 60.3924 97.272 60.3924 94.92ZM58.7764 94.92C58.7764 96.504 57.5444 97.752 56.0084 97.752C54.4724 97.752 53.2404 96.504 53.2404 94.92C53.2404 93.352 54.4724 92.104 56.0084 92.104C57.5444 92.104 58.7764 93.352 58.7764 94.92ZM70.2867 94.92C70.2867 92.568 68.3348 90.664 65.9028 90.664C63.4707 90.664 61.5187 92.568 61.5187 94.92C61.5187 97.272 63.4707 99.192 65.9028 99.192C68.3348 99.192 70.2867 97.272 70.2867 94.92ZM68.6708 94.92C68.6708 96.504 67.4387 97.752 65.9028 97.752C64.3667 97.752 63.1347 96.504 63.1347 94.92C63.1347 93.352 64.3667 92.104 65.9028 92.104C67.4387 92.104 68.6708 93.352 68.6708 94.92ZM73.3331 94.12C73.3331 92.936 74.1171 92.12 75.2371 92.12C76.3251 92.12 77.0611 92.92 77.0611 94.072V99H78.6771V94.12C78.6771 92.936 79.4611 92.12 80.5811 92.12C81.6691 92.12 82.4051 92.92 82.4051 94.072V99H84.0211V93.736C84.0211 92.024 82.7891 90.664 80.9811 90.664C79.8131 90.664 78.8371 91.256 78.3091 92.2C77.8291 91.272 76.8691 90.664 75.6371 90.664C74.7091 90.664 73.8931 91.048 73.3331 91.704V90.84H71.7171V99H73.3331V94.12Z" fill="" stroke="transparent"/>
</svg>
