<svg width="128" height="103" viewBox="0 0 128 103" fill="none" xmlns="http://www.w3.org/2000/svg">
<path d="M50.7996 26.4C50.7996 24.4116 49.188 22.8 47.1996 22.8C45.2112 22.8 43.5996 24.4116 43.5996 26.4V38.4C43.5996 48.3408 51.6588 56.4 61.5996 56.4C71.5404 56.4 79.5996 48.3408 79.5996 38.4V28.8C79.5996 26.8116 77.988 25.2 75.9996 25.2C74.0112 25.2 72.3996 26.8116 72.3996 28.8V26.4C72.3996 24.4116 70.788 22.8 68.7996 22.8C66.8112 22.8 65.1996 24.4116 65.1996 26.4V24C65.1996 22.0116 63.588 20.4 61.5996 20.4C59.6112 20.4 57.9996 22.0116 57.9996 24V7.19998C57.9996 5.21158 56.388 3.59998 54.3996 3.59998C52.4112 3.59998 50.7996 5.21158 50.7996 7.19998V34.8V26.4Z" stroke="white" stroke-width="2" stroke-miterlimit="10" stroke-linecap="round" stroke-linejoin="round"/>
<path d="M74.7998 2.40002V19.2" stroke="#60C2A4" stroke-width="2" stroke-miterlimit="10" stroke-linecap="round" stroke-linejoin="round"/>
<path d="M72.3994 4.80002L74.7994 2.40002L77.1994 4.80002" stroke="#60C2A4" stroke-width="2" stroke-miterlimit="10" stroke-linecap="round" stroke-linejoin="round"/>
<path d="M72.3994 16.8L74.7994 19.2L77.1994 16.8" stroke="#60C2A4" stroke-width="2" stroke-miterlimit="10" stroke-linecap="round" stroke-linejoin="round"/>
<path d="M83.1994 10.8H66.3994" stroke="#60C2A4" stroke-width="2" stroke-miterlimit="10" stroke-linecap="round" stroke-linejoin="round"/>
<path d="M80.7998 8.40002L83.1998 10.8L80.7998 13.2" stroke="#60C2A4" stroke-width="2" stroke-miterlimit="10" stroke-linecap="round" stroke-linejoin="round"/>
<path d="M68.7994 8.40002L66.3994 10.8L68.7994 13.2" stroke="#60C2A4" stroke-width="2" stroke-miterlimit="10" stroke-linecap="round" stroke-linejoin="round"/>
<path d="M36.348 99H38.028V94.504H40.7C42.636 94.504 44.108 93.016 44.108 91.16C44.108 89.272 42.636 87.8 40.7 87.8H36.348V99ZM40.572 89.272C41.676 89.272 42.412 90.104 42.412 91.176C42.412 92.232 41.676 93.064 40.572 93.064H38.028V89.272H40.572ZM44.3881 96.744C44.3881 98.168 45.5721 99.176 47.1721 99.176C48.2601 99.176 49.1721 98.728 49.7161 97.976C49.9241 98.616 50.5001 99 51.2841 99H52.0841V97.576H51.6681C51.3481 97.576 51.1881 97.416 51.1881 97.112V93.432C51.1881 91.768 49.9881 90.696 48.1481 90.696C46.9321 90.696 45.8601 91.048 45.0121 91.768L45.7321 92.936C46.4201 92.392 47.1401 92.152 47.9241 92.152C48.9961 92.152 49.6041 92.712 49.6041 93.64V94.168L47.0601 94.36C45.3641 94.472 44.3881 95.32 44.3881 96.744ZM45.9401 96.728C45.9401 96.056 46.4041 95.656 47.3001 95.592L49.6041 95.4V96.072C49.6041 97.096 48.6601 97.912 47.4921 97.912C46.5801 97.912 45.9401 97.432 45.9401 96.728ZM60.4279 93.784C60.4279 92.04 59.1639 90.664 57.2919 90.664C56.3159 90.664 55.4679 91.064 54.8919 91.736V90.84H53.2759V99H54.8919V94.152C54.8919 92.936 55.7239 92.12 56.8919 92.12C58.0439 92.12 58.8119 92.92 58.8119 94.104V99H60.4279V93.784ZM69.3066 93.784C69.3066 92.04 68.0426 90.664 66.1706 90.664C65.1946 90.664 64.3466 91.064 63.7706 91.736V90.84H62.1546V99H63.7706V94.152C63.7706 92.936 64.6026 92.12 65.7706 92.12C66.9226 92.12 67.6906 92.92 67.6906 94.104V99H69.3066V93.784ZM71.8494 89.704C72.3774 89.704 72.7934 89.272 72.7934 88.728C72.7934 88.2 72.3774 87.768 71.8494 87.768C71.3054 87.768 70.8734 88.2 70.8734 88.728C70.8734 89.272 71.3054 89.704 71.8494 89.704ZM72.6494 90.84H71.0334V99H72.6494V90.84ZM81.5329 93.784C81.5329 92.04 80.2689 90.664 78.3969 90.664C77.4209 90.664 76.5729 91.064 75.9969 91.736V90.84H74.3809V99H75.9969V94.152C75.9969 92.936 76.8289 92.12 77.9969 92.12C79.1489 92.12 79.9169 92.92 79.9169 94.104V99H81.5329V93.784ZM91.6596 90.84H90.0436V91.848C89.3076 91.112 88.3156 90.664 87.1956 90.664C84.8436 90.664 82.9556 92.52 82.9556 94.856C82.9556 97.224 84.8276 99.08 87.1956 99.08C88.2996 99.08 89.2916 98.648 90.0276 97.928V99.128C90.0276 100.248 89.4516 100.84 88.2836 100.84H86.5876V102.216H88.6356C90.4916 102.216 91.6596 101.08 91.6596 99.256V90.84ZM84.5556 94.856C84.5556 93.336 85.7876 92.088 87.3076 92.088C88.8276 92.088 90.0596 93.32 90.0596 94.856C90.0596 96.408 88.8436 97.656 87.3076 97.656C85.7876 97.656 84.5556 96.424 84.5556 94.856Z" fill="#CDCFD6"/>
</svg>
