<svg width="108" height="108" viewBox="0 0 108 108" xmlns="http://www.w3.org/2000/svg">
<path d="M8.592 53.9C8.592 57.148 11.12 59.692 14.528 59.692C16.608 59.692 18.352 58.684 19.392 57.164L18.048 56.236C17.296 57.404 15.984 58.156 14.512 58.156C12.176 58.156 10.288 56.38 10.288 53.9C10.288 51.436 12.16 49.644 14.512 49.644C15.936 49.644 17.232 50.412 18.016 51.564L19.36 50.652C18.288 49.132 16.544 48.108 14.496 48.108C11.12 48.108 8.592 50.7 8.592 53.9ZM22.3569 54.62C22.3569 53.436 23.1409 52.62 24.2609 52.62C25.3489 52.62 26.0849 53.42 26.0849 54.572V59.5H27.7009V54.62C27.7009 53.436 28.4849 52.62 29.6049 52.62C30.6929 52.62 31.4289 53.42 31.4289 54.572V59.5H33.0449V54.236C33.0449 52.524 31.8129 51.164 30.0049 51.164C28.8369 51.164 27.8609 51.756 27.3329 52.7C26.8529 51.772 25.8929 51.164 24.6609 51.164C23.7329 51.164 22.9169 51.548 22.3569 52.204V51.34H20.7409V59.5H22.3569V54.62ZM43.2719 59.5V48.3H41.6559V52.364C40.9199 51.612 39.8959 51.164 38.7759 51.164C36.3759 51.164 34.4719 53.068 34.4719 55.436C34.4719 57.788 36.3599 59.692 38.7759 59.692C39.9119 59.692 40.9359 59.228 41.6719 58.476V59.5H43.2719ZM41.6879 55.436C41.6879 57.004 40.4399 58.268 38.8879 58.268C37.3359 58.268 36.0879 57.004 36.0879 55.436C36.0879 53.852 37.3359 52.604 38.8879 52.604C40.4399 52.604 41.6879 53.852 41.6879 55.436ZM52.4735 57.292V54.412H55.3055V53.116H52.4735V50.3H51.1775V53.116H48.3455V54.412H51.1775V57.292H52.4735Z" fill="" stroke="transparent"/>
<path d="M72.2004 51.6001C72.2004 50.2745 71.126 49.2001 69.8004 49.2001C68.4748 49.2001 67.4004 50.2745 67.4004 51.6001V59.6002C67.4004 66.2274 72.7732 71.6002 79.4004 71.6002C86.0276 71.6002 91.4004 66.2274 91.4004 59.6002V53.2001C91.4004 51.8745 90.326 50.8001 89.0004 50.8001C87.6748 50.8001 86.6004 51.8745 86.6004 53.2001V51.6001C86.6004 50.2745 85.526 49.2001 84.2004 49.2001C82.8748 49.2001 81.8004 50.2745 81.8004 51.6001V50.0001C81.8004 48.6745 80.726 47.6001 79.4004 47.6001C78.0748 47.6001 77.0004 48.6745 77.0004 50.0001V38.8001C77.0004 37.4745 75.926 36.4001 74.6004 36.4001C73.2748 36.4001 72.2004 37.4745 72.2004 38.8001V57.2001V51.6001Z" stroke="" fill="transparent" stroke-miterlimit="10" stroke-linecap="round" stroke-linejoin="round"/>
<path d="M88.2012 35.6001V46.8001" stroke="#60C2A4" stroke-miterlimit="10" stroke-linecap="round" stroke-linejoin="round"/>
<path d="M86.5996 37.2001L88.1996 35.6001L89.7996 37.2001" stroke="#60C2A4" stroke-miterlimit="10" stroke-linecap="round" stroke-linejoin="round"/>
<path d="M86.5996 45.2002L88.1996 46.8002L89.7996 45.2002" stroke="#60C2A4" stroke-miterlimit="10" stroke-linecap="round" stroke-linejoin="round"/>
<path d="M93.7996 41.2002H82.5996" stroke="#60C2A4" stroke-miterlimit="10" stroke-linecap="round" stroke-linejoin="round"/>
<path d="M92.2012 39.6001L93.8012 41.2001L92.2012 42.8001" stroke="#60C2A4" stroke-miterlimit="10" stroke-linecap="round" stroke-linejoin="round"/>
<path d="M84.1996 39.6001L82.5996 41.2001L84.1996 42.8001" stroke="#60C2A4" stroke-miterlimit="10" stroke-linecap="round" stroke-linejoin="round"/>
</svg>
