<svg width="108" height="108" viewBox="0 0 108 108" xmlns="http://www.w3.org/2000/svg">
<path d="M45.2004 51.6C45.2004 50.2744 44.126 49.2 42.8004 49.2C41.4748 49.2 40.4004 50.2744 40.4004 51.6V59.6C40.4004 66.2272 45.7732 71.6 52.4004 71.6C59.0276 71.6 64.4004 66.2272 64.4004 59.6V53.2C64.4004 51.8744 63.326 50.8 62.0004 50.8C60.6748 50.8 59.6004 51.8744 59.6004 53.2V51.6C59.6004 50.2744 58.526 49.2 57.2004 49.2C55.8748 49.2 54.8004 50.2744 54.8004 51.6V50C54.8004 48.6744 53.726 47.6 52.4004 47.6C51.0748 47.6 50.0004 48.6744 50.0004 50V38.8C50.0004 37.4744 48.926 36.4 47.6004 36.4C46.2748 36.4 45.2004 37.4744 45.2004 38.8V57.2V51.6Z" stroke="" fill="transparent" stroke-miterlimit="10" stroke-linecap="round" stroke-linejoin="round"/>
<path d="M61.2012 35.6V46.8" stroke="#60C2A4" stroke-miterlimit="10" stroke-linecap="round" stroke-linejoin="round"/>
<path d="M59.5996 37.2L61.1996 35.6L62.7996 37.2" stroke="#60C2A4" stroke-miterlimit="10" stroke-linecap="round" stroke-linejoin="round"/>
<path d="M59.5996 45.2L61.1996 46.8L62.7996 45.2" stroke="#60C2A4" stroke-miterlimit="10" stroke-linecap="round" stroke-linejoin="round"/>
<path d="M66.7996 41.2H55.5996" stroke="#60C2A4" stroke-miterlimit="10" stroke-linecap="round" stroke-linejoin="round"/>
<path d="M65.2012 39.6L66.8012 41.2L65.2012 42.8" stroke="#60C2A4" stroke-miterlimit="10" stroke-linecap="round" stroke-linejoin="round"/>
<path d="M57.1996 39.6L55.5996 41.2L57.1996 42.8" stroke="#60C2A4" stroke-miterlimit="10" stroke-linecap="round" stroke-linejoin="round"/>
</svg>
