<svg width="108" height="108" viewBox="0 0 108 108" xmlns="http://www.w3.org/2000/svg">
<path d="M31.5928 48.4C31.5928 47.0744 32.6672 46 33.9928 46C35.3184 46 36.3928 47.0744 36.3928 48.4V50C36.3928 48.6744 37.4672 47.6 38.7928 47.6C40.1184 47.6 41.1928 48.6744 41.1928 50V52.4V51.5504C41.1928 50.2248 42.2672 49.1504 43.5928 49.1504C44.9184 49.1504 45.9928 50.2248 45.9928 51.5504V59.6C45.9928 66.2272 40.62 71.6 33.9928 71.6C30.6792 71.6 27.6792 70.2568 25.5072 68.0856L16.9192 57.2712C16.1632 56.3192 16.2416 54.952 17.1008 54.092C18.0352 53.1576 19.5496 53.1576 20.484 54.092L23.864 57.472C24.9448 58.5528 26.792 57.7872 26.792 56.2592V52.4V38.8C26.792 37.4744 27.8664 36.4 29.192 36.4C30.5176 36.4 31.592 37.4744 31.592 38.8V50" stroke="" fill="transparent" stroke-miterlimit="10" stroke-linecap="round" stroke-linejoin="round"/>
<path d="M14 50.0001L22.8 41.2001" stroke="#60C2A4" stroke-miterlimit="10" stroke-linecap="round" stroke-linejoin="round"/>
<path d="M22.7996 44.4001V41.2001H19.5996" stroke="#60C2A4" stroke-miterlimit="10" stroke-linecap="round" stroke-linejoin="round"/>
<path d="M14 46.8V50H17.2" stroke="#60C2A4" stroke-miterlimit="10" stroke-linecap="round" stroke-linejoin="round"/>
<path d="M79.5928 48.4C79.5928 47.0744 80.6672 46 81.9928 46C83.3184 46 84.3928 47.0744 84.3928 48.4V50C84.3928 48.6744 85.4672 47.6 86.7928 47.6C88.1184 47.6 89.1928 48.6744 89.1928 50V52.4V51.5504C89.1928 50.2248 90.2672 49.1504 91.5928 49.1504C92.9184 49.1504 93.9928 50.2248 93.9928 51.5504V59.6C93.9928 66.2272 88.62 71.6 81.9928 71.6C78.6792 71.6 75.6792 70.2568 73.5072 68.0856L64.9192 57.2712C64.1632 56.3192 64.2416 54.952 65.1008 54.092C66.0352 53.1576 67.5496 53.1576 68.484 54.092L71.864 57.472C72.9448 58.5528 74.792 57.7872 74.792 56.2592V52.4V38.8C74.792 37.4744 75.8664 36.4 77.192 36.4C78.5176 36.4 79.592 37.4744 79.592 38.8V50" stroke="" fill="transparent" stroke-miterlimit="10" stroke-linecap="round" stroke-linejoin="round"/>
<path d="M67.5996 44.4001L70.7996 41.2001" stroke="#60C2A4" stroke-miterlimit="10" stroke-linecap="round" stroke-linejoin="round"/>
<path d="M62 50L65.2 46.8" stroke="#60C2A4" stroke-miterlimit="10" stroke-linecap="round" stroke-linejoin="round"/>
<path d="M65.2 50V46.8H62" stroke="#60C2A4" stroke-miterlimit="10" stroke-linecap="round" stroke-linejoin="round"/>
<path d="M67.5996 41.2001V44.4001H70.7996" stroke="#60C2A4" stroke-miterlimit="10" stroke-linecap="round" stroke-linejoin="round"/>
</svg>
