<svg width="36" height="36" viewBox="0 0 42 36" fill="none" xmlns="http://www.w3.org/2000/svg">
<path fill-rule="evenodd" clip-rule="evenodd" d="M5.29688 0C2.88926 0 0.9375 1.95176 0.9375 4.35938V23.8125C0.9375 26.2201 2.88926 28.1719 5.29687 28.1719H17.7422L16.4062 33.2812H13.8984C12.6946 33.2812 11.7188 34.2571 11.7188 35.4609V36H30V35.4609C30 34.2571 29.0241 33.2812 27.8203 33.2812H25.5938L24.3516 28.1719H36.6562C39.0639 28.1719 41.0156 26.2201 41.0156 23.8125V4.35938C41.0156 1.95176 39.0639 0 36.6562 0H5.29688ZM35.7188 2.48438H21V25.6875H35.7188C37.272 25.6875 38.5312 24.4283 38.5312 22.875V5.29688C38.5312 3.74357 37.272 2.48438 35.7188 2.48438Z" fill="#60C2A4"/>
</svg>
