<svg width="36" height="36" viewBox="0 0 37 36" fill="none" xmlns="http://www.w3.org/2000/svg">
<path d="M36.0011 20.3133C35.9675 21.5388 34.9311 22.5 33.7052 22.5H29.8144V23.625C29.8144 25.1623 29.4711 26.6192 28.8582 27.9243L33.0929 32.159C33.9716 33.0377 33.9716 34.4623 33.0929 35.341C32.2142 36.2197 30.7896 36.2197 29.9109 35.341L26.0623 31.4924C24.322 32.9038 22.1047 33.75 19.6894 33.75V16.5938C19.6894 16.1278 19.3116 15.75 18.8457 15.75H17.1582C16.6922 15.75 16.3144 16.1278 16.3144 16.5938V33.75C13.8991 33.75 11.6818 32.9038 9.94157 31.4924L6.09294 35.341C5.21418 36.2197 3.78958 36.2197 2.91088 35.341C2.03225 34.4623 2.03225 33.0377 2.91088 32.159L7.14566 27.9243C6.53268 26.6192 6.18941 25.1623 6.18941 23.625V22.5H2.29874C1.07277 22.5 0.0364341 21.5388 0.00282472 20.3133C-0.0321206 19.0417 0.988254 18 2.25191 18H6.18941V13.8695L2.91088 10.591C2.03225 9.71227 2.03225 8.28766 2.91088 7.40897C3.78965 6.53027 5.21418 6.53027 6.09294 7.40897L9.9339 11.25H26.0698L29.9108 7.40904C30.7896 6.53034 32.2141 6.53034 33.0929 7.40904C33.9715 8.28773 33.9715 9.71234 33.0929 10.591L29.8144 13.8695V18H33.7519C35.0156 18 36.0359 19.0417 36.0011 20.3133ZM18.0722 0C13.723 0 10.1972 3.52575 10.1972 7.875H25.9472C25.9472 3.52575 22.4215 0 18.0722 0Z" fill="#60C2A4"/>
</svg>
