<svg width="42" height="16" viewBox="0 0 42 16" fill="none" xmlns="http://www.w3.org/2000/svg">
<path d="M40.5308 0.370664C40.3573 0.368024 40.185 0.400296 40.0238 0.465627C39.8625 0.530959 39.7156 0.628065 39.5913 0.751371C39.467 0.874678 39.3679 1.02176 39.2996 1.18417C39.2312 1.34659 39.1951 1.52114 39.1932 1.69781C39.2066 2.05472 39.3553 2.39247 39.608 2.64016C39.8608 2.88785 40.1979 3.02622 40.5487 3.02622C40.8995 3.02622 41.2367 2.88785 41.4894 2.64016C41.7422 2.39247 41.8908 2.05472 41.9042 1.69781C41.9028 1.51789 41.8657 1.34012 41.7952 1.1751C41.7248 1.01008 41.6224 0.861202 41.4943 0.737342C41.3661 0.613482 41.2147 0.51718 41.0492 0.454181C40.8837 0.391183 40.7074 0.362779 40.5308 0.370664ZM39.5285 12.8643H41.5672V4.5592H39.5285V12.8643ZM21.2745 4.35184C18.8116 4.35184 16.8407 6.09845 16.8407 8.71152C16.8407 11.3239 18.8116 13.0724 21.2745 13.0724C21.8404 13.0859 22.4031 12.9838 22.9296 12.7722C23.4561 12.5605 23.9355 12.2436 24.3396 11.8401L23.053 10.5301C22.8041 10.8128 22.4985 11.0378 22.1568 11.1898C21.8151 11.3418 21.4453 11.4171 21.0724 11.4109C20.5277 11.4333 19.9954 11.2407 19.5868 10.8732C19.1781 10.5057 18.9247 9.99172 18.8793 9.43851H25.0992V8.86768C25.0992 5.97738 23.5537 4.35184 21.2745 4.35184ZM18.8793 7.8808C18.903 7.3351 19.138 6.82117 19.533 6.45145C19.9279 6.08173 20.4505 5.88631 20.9866 5.90795C22.2612 5.90795 23.0431 6.67018 23.061 7.8808H18.8793ZM27.9435 6.89509C27.9435 6.27168 28.5895 6.01242 29.1341 6.01242C29.4475 6.00375 29.758 6.07636 30.0364 6.22343C30.3147 6.3705 30.5517 6.5872 30.7252 6.85317L32.0222 5.53397C31.6647 5.13509 31.2247 4.82209 30.7338 4.61764C30.243 4.41319 29.7137 4.3224 29.1842 4.35184C27.5358 4.35184 25.904 5.18144 25.904 7.03365C25.904 10.2005 30.3054 8.85013 30.3054 10.5628C30.3054 11.2202 29.5409 11.5142 28.9463 11.5142C28.5696 11.5049 28.1998 11.4086 27.865 11.2326C27.5301 11.0566 27.2388 10.8055 27.0132 10.4982L25.6961 11.8388C26.0993 12.2628 26.5881 12.5928 27.1287 12.8057C27.6693 13.0187 28.2489 13.1097 28.8274 13.0724C30.4923 13.0724 32.3458 12.38 32.3458 10.4072C32.3458 7.17114 27.9435 8.38266 27.9435 6.89509ZM35.3559 5.8729H35.3233V4.5592H33.2842V12.8643H35.3233V8.4168C35.3219 8.12959 35.3786 7.84516 35.4901 7.58131C35.6015 7.31745 35.7652 7.07985 35.971 6.88336C36.1767 6.68687 36.42 6.53572 36.6858 6.43936C36.9515 6.343 37.2339 6.30351 37.5153 6.32336C37.8195 6.33247 38.1215 6.37776 38.4153 6.45829L38.4949 4.47114C38.2601 4.39719 38.0163 4.35703 37.7706 4.35184C37.2666 4.33966 36.77 4.47697 36.3413 4.74703C35.9126 5.0171 35.5702 5.40827 35.3559 5.8729ZM7.74295 1.57898C7.27616 1.56447 6.80947 1.61106 6.35433 1.7176C6.31547 1.70469 6.27414 1.7014 6.23378 1.70801C6.19342 1.71462 6.15519 1.73092 6.12226 1.75558C6.08932 1.78024 6.06264 1.81253 6.04442 1.84979C6.02619 1.88705 6.01695 1.92819 6.01747 1.96981C6.01286 2.02635 6.02187 2.08318 6.04373 2.13537C6.06558 2.18755 6.09961 2.23352 6.14287 2.26928C6.60461 2.61354 7.03794 2.99567 7.43851 3.41184C7.19264 3.43941 6.92481 3.48538 6.65076 3.54314C6.34448 2.86901 5.35941 3.48197 4.70557 3.50858C4.62889 3.51178 4.55532 3.52202 4.47955 3.52725C4.4061 3.01148 4.36927 2.49098 4.36936 1.96981C5.49794 1.43035 6.72418 1.13515 7.97055 1.10288L8.16546 1.09765C8.32909 1.09621 8.34203 0.963571 8.18824 0.942185C6.88632 0.783057 5.56657 0.99459 4.37563 1.55328C2.58626 2.38277 1.18529 3.89027 0.470662 5.7552C0.238421 6.42053 -0.691284 9.59237 0.960424 12.3149C1.48854 13.2808 2.2326 14.1064 3.13236 14.7251C4.03212 15.3437 5.0623 15.738 6.13952 15.8759C7.68759 16.19 9.29369 15.9927 10.724 15.3129C13.8413 13.904 16.2217 8.61504 13.8406 4.78112C12.9009 3.01125 10.4384 1.45925 7.74295 1.57898ZM6.55982 4.05776C6.96736 3.96401 7.38064 3.89833 7.79685 3.86117C8.14486 4.2812 8.45152 4.735 8.71242 5.21605C8.29059 5.42384 7.72865 5.58293 7.50001 5.91594C7.40956 6.07685 7.36735 6.2612 7.37859 6.44624C6.68337 6.61467 6.00382 6.84418 5.34757 7.13221C5.11036 6.42186 4.90229 5.71408 4.75899 5.08309C5.43787 4.42352 6.23255 4.3161 6.55982 4.05776ZM10.0224 12.5271C9.83662 12.547 9.65197 12.5712 9.4897 12.5967C9.01007 12.6793 8.53925 12.8083 8.08364 12.9818C7.5726 12.2217 7.10602 11.4317 6.68632 10.6157C7.63628 10.1621 8.66362 9.90057 9.71143 9.84544C9.81016 10.0304 9.93179 10.2018 10.0733 10.3553C10.4694 10.7681 9.84196 11.3595 10.0224 12.5271ZM5.51587 7.65253C6.11394 7.36218 6.7386 7.13242 7.38084 6.96656C7.38552 7.13243 7.35278 7.29718 7.28514 7.44816C7.19371 7.76174 7.21862 8.0986 7.35512 8.39472C7.75055 8.98059 8.40709 8.65509 8.9013 8.86587C9.11 8.95972 9.28591 9.1157 9.40589 9.31328C8.37273 9.37467 7.35958 9.62977 6.4174 10.0658C6.07138 9.27975 5.77037 8.47399 5.51587 7.65253ZM5.95173 10.2857C5.91512 10.3034 5.87578 10.3252 5.83801 10.3444C5.26083 10.1805 4.90292 10.0894 4.1324 9.92832C3.75793 9.82062 3.35789 9.8539 3.00556 10.0221C2.92197 10.0467 2.84172 10.069 2.76371 10.0926C2.6857 9.88917 2.60833 9.67834 2.53032 9.45168C3.31527 8.83258 4.16182 8.29898 5.05606 7.85963C5.3174 8.65509 5.69198 9.71754 5.95173 10.2857ZM6.3537 12.7009C6.49359 12.3772 6.59976 12.0394 6.67045 11.6931C6.9686 12.2038 7.32453 12.7592 7.5999 13.1939C7.10747 13.4496 6.63901 13.7505 6.20033 14.093C6.19784 13.6244 6.24932 13.1572 6.3537 12.7009ZM9.14791 4.89488C9.14257 4.90261 9.13314 4.9088 9.12733 4.91627C8.90723 4.52784 8.66643 4.15197 8.40599 3.79034C8.99574 3.7633 9.58665 3.78263 10.1735 3.84816C9.64239 4.04165 9.40809 4.51664 9.14791 4.89488ZM4.41896 5.47824C4.42858 5.46458 4.43906 5.45344 4.4489 5.44C4.57118 6.07045 4.71758 6.59232 4.91274 7.31616C4.00057 7.7669 3.12848 8.29729 2.30627 8.90139C2.18341 8.56184 2.08041 8.21519 1.9978 7.86325C2.04274 7.68036 2.14038 7.51534 2.27818 7.38941C2.41597 7.26348 2.58761 7.18239 2.77103 7.15659C3.41397 7.09104 3.96565 6.11712 4.41896 5.47824ZM1.58541 4.52709C2.23775 3.55845 3.07989 2.73774 4.05887 2.11658C4.07269 2.59698 4.11081 3.07634 4.17309 3.55274C3.87465 3.58304 3.5792 3.62053 3.28675 3.66522C2.59572 4.26443 2.03935 5.00796 1.65541 5.84539C1.59627 5.40869 1.57285 4.96774 1.58541 4.52709ZM1.13658 5.29365C1.13658 5.29365 1.16899 5.85904 1.19582 6.2712C0.967132 6.53615 0.760527 6.82005 0.578153 7.11995C0.64916 6.4807 0.838655 5.86097 1.13658 5.29365ZM5.15106 15.0839C4.1494 14.7483 3.24109 14.1736 2.50188 13.4079C1.76268 12.6422 1.21401 11.7076 0.901637 10.6821C0.576628 9.56327 0.460843 8.39223 0.560302 7.22987C0.624341 7.2529 0.693667 7.256 0.759444 7.23877C0.830084 7.1896 1.08201 7.00933 1.26106 6.85067C1.26353 6.87162 1.26756 6.89824 1.27045 6.92075C1.14673 7.39281 1.07632 7.87771 1.06059 8.36602C1.30152 8.65642 1.52643 8.96021 1.73429 9.276C1.57159 9.39888 1.26019 9.61829 1.18708 9.67157C1.14148 9.69759 1.10262 9.73429 1.07372 9.77864C1.04482 9.82298 1.0267 9.8737 1.02086 9.92659C1.01503 9.97948 1.02164 10.033 1.04016 10.0828C1.05868 10.1326 1.08857 10.1771 1.12736 10.2128C1.17571 10.2433 1.23166 10.2591 1.28855 10.2581C1.34543 10.2571 1.40084 10.2395 1.44814 10.2073C1.62585 10.0591 1.81234 9.92209 2.00657 9.79717C2.08567 10.0066 2.15943 10.1955 2.23208 10.3757C2.12756 10.4936 2.06442 10.6435 2.05258 10.8018C2.05733 11.096 2.159 11.3799 2.34126 11.6082C2.52352 11.8364 2.77581 11.9957 3.05764 12.0605C3.07597 12.0659 3.08936 12.0677 3.10681 12.0728C3.13295 12.1128 3.15666 12.151 3.18413 12.192C2.97762 12.3558 2.793 12.5463 2.63493 12.7587C2.56584 12.8507 2.48761 12.9881 2.55133 13.0155C2.67684 13.0312 2.80408 13.0251 2.92755 12.9973C3.17188 12.9495 3.36032 12.6741 3.52906 12.573C3.79761 12.9275 4.09019 13.2625 4.40466 13.5754C4.41967 13.6391 4.4335 13.7064 4.45071 13.7629C4.51886 13.9827 4.60561 14.1961 4.70999 14.4006C4.95906 14.517 5.21525 14.6169 5.47695 14.6997C5.36123 14.8214 5.25242 14.9496 5.15106 15.0839ZM5.66919 15.2505C5.74718 15.1312 5.8358 15.0195 5.93393 14.9168C6.17865 15.0821 6.44108 15.2715 6.65034 15.3935C6.31947 15.3788 5.99082 15.3309 5.66919 15.2505ZM7.29971 15.4157C6.93476 15.1747 6.58346 14.9128 6.24748 14.6314C6.74825 14.2244 7.29908 13.8858 7.88601 13.6241C8.09637 13.9605 8.79047 14.961 9.06851 15.2837C8.48456 15.3865 7.89213 15.4307 7.29971 15.4157ZM10.8121 14.6114C10.4403 14.8153 10.0543 14.9913 9.65738 15.1381C9.18399 14.6073 8.75635 14.0361 8.37918 13.4306C8.94349 13.2115 9.5323 13.0644 10.1322 12.9927C10.1945 13.1932 10.2722 13.3883 10.3646 13.5763C10.4445 13.7511 10.5604 13.9063 10.7044 14.0315C10.749 14.0033 10.7905 13.97 10.8345 13.9409C10.8313 14.1644 10.8253 14.392 10.8121 14.6114ZM10.6389 3.15669C10.4974 3.06501 10.321 3.09914 10.3943 3.25978C10.4614 3.35692 10.5363 3.44829 10.6181 3.53296C9.7815 3.36041 8.92699 3.2951 8.07447 3.33856C7.63863 2.78399 7.13494 2.28843 6.57564 1.86394C9.19417 1.69802 11.5464 2.80074 12.5857 4.09626C12.1364 3.88177 11.6686 3.70988 11.1883 3.58277C11.0212 3.42047 10.837 3.27757 10.6389 3.15669ZM11.2122 14.3916C11.2243 14.1744 11.2333 13.8995 11.24 13.6468C11.4952 13.4457 11.735 13.2251 11.9573 12.9868C12.2088 13.0144 12.4584 13.057 12.7051 13.1142C12.2822 13.6231 11.7774 14.055 11.2122 14.3916ZM13.2156 12.4051C13.1264 12.5784 13.0149 12.7388 12.8841 12.8821C12.6667 12.8002 12.444 12.7334 12.2177 12.6823C12.2589 12.6322 12.3033 12.5849 12.3432 12.5334C12.484 11.5757 12.1663 11.2689 12.5637 10.3926C12.5915 10.3316 12.6219 10.2643 12.6536 10.1946C12.8583 10.2522 13.0599 10.3209 13.2574 10.4004C13.2842 11.0688 13.2703 11.7384 13.2156 12.4051ZM12.8448 9.78309C12.9474 9.56592 13.0605 9.33514 13.1829 9.10533C13.2147 9.39754 13.2375 9.68202 13.2514 9.9392C13.1255 9.88277 12.9871 9.83178 12.8448 9.78309ZM14.0065 10.3835L13.905 10.7868C13.7854 11.1912 13.6399 11.5872 13.4693 11.9721C13.5206 11.4886 13.5465 11.0027 13.5469 10.5164C13.6078 10.5185 13.668 10.5024 13.72 10.4701C13.772 10.4377 13.8135 10.3905 13.8395 10.3343C13.8692 10.2306 13.5442 10.0703 13.5442 10.0703C13.5449 9.58884 13.5147 9.1078 13.4538 8.63029C13.5285 8.50805 13.6041 8.38923 13.6812 8.28091C13.667 7.99917 13.6345 7.71869 13.5842 7.44128C13.6386 7.46237 13.6955 7.47577 13.7534 7.48112C13.9014 7.48341 13.901 7.37984 13.8536 7.32229C13.7491 7.2363 13.6364 7.16134 13.5171 7.09856C13.275 6.0425 12.7738 5.06622 12.0603 4.26106C12.3751 4.3784 12.6821 4.51614 12.9795 4.67344C13.6094 5.41403 14.0121 6.32641 14.1379 7.29765C14.3386 8.32203 14.2935 9.38062 14.0065 10.3835Z"/>
</svg>
