<svg width="22" height="25" viewBox="0 0 22 25" fill="none" xmlns="http://www.w3.org/2000/svg">
<path d="M21.5195 7.28486C22.1035 7.62203 22.1035 8.46495 21.5195 8.80211L7.79334 16.7269L7.79334 0.87729C7.79334 0.202956 8.52332 -0.218501 9.10732 0.118667L21.5195 7.28486Z" fill="#605DEC" fill-opacity="0.9"/>
<path d="M21.5195 16.1983C22.1035 16.5354 22.1035 17.3783 21.5195 17.7155L9.10731 24.8817C8.52332 25.2189 7.79334 24.7974 7.79334 24.1231L7.79334 8.27344L21.5195 16.1983Z" fill="#605DEC" fill-opacity="0.9"/>
<path d="M15.0402 12.4995L1.31397 20.4244C0.729975 20.7615 -1.11847e-05 20.3401 -1.11553e-05 19.6657L-1.05288e-05 5.33334C-1.04993e-05 4.65901 0.729977 4.23755 1.31397 4.57472L15.0402 12.4995Z" fill="#60C2A4" fill-opacity="0.9"/>
</svg>
