<svg width="36" height="36" viewBox="0 0 40 32" fill="none" xmlns="http://www.w3.org/2000/svg">
<path d="M0 6.11857V30.8557C0 31.6643 0.79375 32.2171 1.52361 31.9171L11.1111 27.4286V0L1.39722 3.99643C0.984846 4.16608 0.631341 4.45892 0.382298 4.83717C0.133256 5.21542 9.87644e-05 5.66174 0 6.11857H0ZM13.3333 27.4286L26.6667 32V4.57143L13.3333 0V27.4286ZM38.4764 0.0828571L28.8889 4.57143V32L38.6028 28.0036C39.0152 27.834 39.3688 27.5412 39.6178 27.1629C39.8669 26.7846 40 26.3383 40 25.8814V1.14429C40 0.335714 39.2063 -0.217143 38.4764 0.0828571Z" fill="#60C2A4"/>
</svg>
