<svg width="20" height="20" viewBox="0 0 20 20" fill="none" xmlns="http://www.w3.org/2000/svg">
<path d="M8.59007 11.41C9.00007 11.8 9.00007 12.44 8.59007 12.83C8.20007 13.22 7.56007 13.22 7.17007 12.83C5.22007 10.88 5.22007 7.71001 7.17007 5.76001L10.7101 2.22001C12.6601 0.270007 15.8301 0.270007 17.7801 2.22001C19.7301 4.17001 19.7301 7.34001 17.7801 9.29001L16.2901 10.78C16.3001 9.96001 16.1701 9.14001 15.8901 8.36001L16.3601 7.88001C17.5401 6.71001 17.5401 4.81001 16.3601 3.64001C15.1901 2.46001 13.2901 2.46001 12.1201 3.64001L8.59007 7.17001C7.41007 8.34001 7.41007 10.24 8.59007 11.41ZM11.4101 7.17001C11.8001 6.78001 12.4401 6.78001 12.8301 7.17001C14.7801 9.12001 14.7801 12.29 12.8301 14.24L9.29007 17.78C7.34007 19.73 4.17007 19.73 2.22007 17.78C0.270068 15.83 0.270068 12.66 2.22007 10.71L3.71007 9.22001C3.70007 10.04 3.83007 10.86 4.11007 11.65L3.64007 12.12C2.46007 13.29 2.46007 15.19 3.64007 16.36C4.81007 17.54 6.71007 17.54 7.88007 16.36L11.4101 12.83C12.5901 11.66 12.5901 9.76001 11.4101 8.59001C11.0001 8.20001 11.0001 7.56001 11.4101 7.17001Z" fill="white"/>
</svg>
