<svg width="14" height="15" viewBox="0 0 14 15" xmlns="http://www.w3.org/2000/svg">
<path d="M10.8334 2.22667L9.14671 3.52L9.75338 5.56L8.00005 4.35333L6.24671 5.56L6.85338 3.52L5.16671 2.22667L7.29338 2.16667L8.00005 0.166667L8.70671 2.16667L10.8334 2.22667ZM13.1667 6.83333L12.0734 7.66667L12.4667 8.98667L11.3334 8.20667L10.2 8.98667L10.5934 7.66667L9.50005 6.83333L10.8734 6.8L11.3334 5.5L11.7934 6.8L13.1667 6.83333ZM11.6467 10.1333C12.2 10.08 12.7934 10.8667 12.44 11.3667C12.2267 11.6667 12 11.9467 11.72 12.2133C9.11338 14.8333 4.89338 14.8333 2.29338 12.2133C-0.313288 9.61333 -0.313288 5.38667 2.29338 2.78667C2.56005 2.52 2.84005 2.28 3.14005 2.06667C3.64005 1.71333 4.42671 2.30667 4.37338 2.86C4.19338 4.76667 4.83338 6.74667 6.30005 8.20667C7.76005 9.67333 9.73338 10.3133 11.6467 10.1333ZM10.5534 11.48C8.66671 11.3733 6.80005 10.5933 5.35338 9.16667C3.90671 7.70667 3.13338 5.83333 3.02671 3.95333C1.15338 6.04667 1.22671 9.26 3.23338 11.2733C5.24671 13.28 8.46005 13.3533 10.5534 11.48Z"/>
</svg>
