<svg width="24" height="24" viewBox="0 0 24 24" xmlns="http://www.w3.org/2000/svg">
<path d="M21.0002 13.1566C20.9834 13.7694 20.4652 14.25 19.8522 14.25H17.9068V14.8125C17.9068 15.5812 17.7352 16.3096 17.4287 16.9621L19.5461 19.0795C19.9854 19.5189 19.9854 20.2312 19.5461 20.6705C19.1067 21.1099 18.3944 21.1098 17.9551 20.6705L16.0308 18.7462C15.1606 19.4519 14.052 19.875 12.8443 19.875V11.2969C12.8443 11.0639 12.6554 10.875 12.4225 10.875H11.5787C11.3457 10.875 11.1568 11.0639 11.1568 11.2969V19.875C9.94919 19.875 8.84053 19.4519 7.97042 18.7462L6.04611 20.6705C5.60672 21.1099 4.89442 21.1098 4.45507 20.6705C4.01576 20.2312 4.01576 19.5189 4.45507 19.0795L6.57246 16.9621C6.26597 16.3096 6.09434 15.5812 6.09434 14.8125V14.25H4.149C3.53602 14.25 3.01785 13.7694 3.00105 13.1566C2.98357 12.5209 3.49376 12 4.12559 12H6.09434V9.93475L4.45507 8.29548C4.01576 7.85613 4.01576 7.14383 4.45507 6.70448C4.89446 6.26514 5.60672 6.26514 6.04611 6.70448L7.96659 8.625H16.0346L17.955 6.70452C18.3944 6.26517 19.1067 6.26517 19.5461 6.70452C19.9854 7.14387 19.9854 7.85617 19.5461 8.29552L17.9068 9.93475V12H19.8756C20.5074 12 21.0176 12.5209 21.0002 13.1566ZM12.0357 3C9.86112 3 8.09825 4.76288 8.09825 6.9375H15.9732C15.9732 4.76288 14.2104 3 12.0357 3Z" fill="auto"/>
</svg>
