<svg width="12" height="15" viewBox="0 0 12 15" xmlns="http://www.w3.org/2000/svg">
<path fill-rule="evenodd" clip-rule="evenodd" d="M5.364 10.8667C5.53275 11.0227 5.7615 11.1104 6 11.1104C6.2385 11.1104 6.46725 11.0227 6.636 10.8667L11.136 6.7C11.295 6.54203 11.3815 6.33309 11.3774 6.1172C11.3733 5.90131 11.2788 5.69532 11.1139 5.54264C10.9491 5.38996 10.7266 5.3025 10.4934 5.29869C10.2603 5.29489 10.0346 5.37502 9.864 5.52222L6.9 8.26667V0.833333C6.9 0.61232 6.80518 0.400358 6.6364 0.244078C6.46761 0.0877974 6.2387 0 6 0C5.76131 0 5.53239 0.0877974 5.3636 0.244078C5.19482 0.400358 5.1 0.61232 5.1 0.833333V8.26667L2.136 5.52222C1.96539 5.37502 1.73973 5.29489 1.50657 5.29869C1.27341 5.3025 1.05095 5.38996 0.886054 5.54264C0.721158 5.69532 0.626704 5.90131 0.62259 6.1172C0.618476 6.33309 0.705024 6.54203 0.864 6.7L5.364 10.8667ZM0.9 13.3333C0.661305 13.3333 0.432387 13.4211 0.263604 13.5774C0.094821 13.7337 0 13.9457 0 14.1667C0 14.3877 0.094821 14.5996 0.263604 14.7559C0.432387 14.9122 0.661305 15 0.9 15H11.1C11.3387 15 11.5676 14.9122 11.7364 14.7559C11.9052 14.5996 12 14.3877 12 14.1667C12 13.9457 11.9052 13.7337 11.7364 13.5774C11.5676 13.4211 11.3387 13.3333 11.1 13.3333H0.9Z"/>
</svg>
