<svg width="20" height="20" viewBox="0 0 20 20" fill="none" xmlns="http://www.w3.org/2000/svg">
<path d="M10.0008 13.5C9.07256 13.5 8.18232 13.1313 7.52594 12.4749C6.86957 11.8185 6.50082 10.9283 6.50082 10C6.50082 9.07174 6.86957 8.1815 7.52594 7.52513C8.18232 6.86875 9.07256 6.5 10.0008 6.5C10.9291 6.5 11.8193 6.86875 12.4757 7.52513C13.1321 8.1815 13.5008 9.07174 13.5008 10C13.5008 10.9283 13.1321 11.8185 12.4757 12.4749C11.8193 13.1313 10.9291 13.5 10.0008 13.5ZM17.4308 10.97C17.4708 10.65 17.5008 10.33 17.5008 10C17.5008 9.67 17.4708 9.34 17.4308 9L19.5408 7.37C19.7308 7.22 19.7808 6.95 19.6608 6.73L17.6608 3.27C17.5408 3.05 17.2708 2.96 17.0508 3.05L14.5608 4.05C14.0408 3.66 13.5008 3.32 12.8708 3.07L12.5008 0.42C12.4608 0.18 12.2508 0 12.0008 0H8.00082C7.75082 0 7.54082 0.18 7.50082 0.42L7.13082 3.07C6.50082 3.32 5.96082 3.66 5.44082 4.05L2.95082 3.05C2.73082 2.96 2.46082 3.05 2.34082 3.27L0.340816 6.73C0.210816 6.95 0.270816 7.22 0.460816 7.37L2.57082 9C2.53082 9.34 2.50082 9.67 2.50082 10C2.50082 10.33 2.53082 10.65 2.57082 10.97L0.460816 12.63C0.270816 12.78 0.210816 13.05 0.340816 13.27L2.34082 16.73C2.46082 16.95 2.73082 17.03 2.95082 16.95L5.44082 15.94C5.96082 16.34 6.50082 16.68 7.13082 16.93L7.50082 19.58C7.54082 19.82 7.75082 20 8.00082 20H12.0008C12.2508 20 12.4608 19.82 12.5008 19.58L12.8708 16.93C13.5008 16.67 14.0408 16.34 14.5608 15.94L17.0508 16.95C17.2708 17.03 17.5408 16.95 17.6608 16.73L19.6608 13.27C19.7808 13.05 19.7308 12.78 19.5408 12.63L17.4308 10.97Z" fill="#9EA2AE"/>
</svg>
