<svg width="327" height="176" viewBox="0 0 327 176" xmlns="http://www.w3.org/2000/svg">
<rect width="327" height="176" rx="4" fill="auto"/>
<line x1="16.5" y1="152.5" x2="310.5" y2="152.5" stroke="#9EA2AE" stroke-miterlimit="16" stroke-linecap="round" stroke-linejoin="round" stroke-dasharray="0.1 3"/>
<line x1="16.5" y1="126.5" x2="310.5" y2="126.5" stroke="#9EA2AE" stroke-miterlimit="16" stroke-linecap="round" stroke-linejoin="round" stroke-dasharray="0.1 3"/>
<line x1="16.5" y1="100.5" x2="310.5" y2="100.5" stroke="#9EA2AE" stroke-miterlimit="16" stroke-linecap="round" stroke-linejoin="round" stroke-dasharray="0.1 3"/>
<line x1="16.5" y1="74.5" x2="310.5" y2="74.5" stroke="#9EA2AE" stroke-miterlimit="16" stroke-linecap="round" stroke-linejoin="round" stroke-dasharray="0.1 3"/>
<line x1="16.5" y1="48.5" x2="310.5" y2="48.5" stroke="#9EA2AE" stroke-miterlimit="16" stroke-linecap="round" stroke-linejoin="round" stroke-dasharray="0.1 3"/>
<line x1="16.5" y1="22.5" x2="310.5" y2="22.5" stroke="#9EA2AE" stroke-miterlimit="16" stroke-linecap="round" stroke-linejoin="round" stroke-dasharray="0.1 3"/>
<path fill-rule="evenodd" clip-rule="evenodd" d="M16 153L16 130.865L17.3133 129.986L18.6266 129.108L19.9399 128.23L21.2532 115.206L22.5665 126.473L23.8798 131.667L25.1931 124.716L26.5064 129.91L27.8396 124.189L29.1728 124.541L30.506 112.747L31.8392 125.243L33.1724 113.449L34.5056 125.946L35.8388 126.297L37.172 138.794L38.5251 124.014L39.8782 133.524L41.2313 118.743L42.5844 116.108L43.9375 101.328L45.2906 110.838L46.6437 96.0574L47.9968 105.568L50.6234 118.503L53.25 107.149L55.8766 120.084L58.5032 108.73L61.2094 109.872L63.9156 98.8682L66.6218 112.155L69.328 113.297L71.9944 110.838L74.6608 108.378L77.3272 118.064L79.9936 103.459L82.6202 116.132L85.2468 104.514L87.8734 105.041L90.5 93.4223L93.1664 98.7162L95.8328 79.7196L98.4992 85.0135L101.166 78.1622L103.792 90.7466L106.419 79.0405L109.045 91.625L111.672 81.1334L113.025 87.6529L114.378 69.8817L117.084 71.9899L119.791 98.3885L122.497 82.2787L123.83 87.4426L125.163 81.6757L126.496 86.8395L127.83 77.4291L129.163 68.0186L130.496 71.9679L131.829 64.9865L133.162 73.7939L135.829 55.2973L138.495 64.7348L141.162 69.3142L143.828 60.5338L146.494 73.5845L149.161 59.9156L151.827 39.5667L154.494 45.9375L157.12 38.685L159.747 43.5777L162.373 33.2889L165 23L165 153L16 153Z" fill="#60C2A4"/>
<path fill-rule="evenodd" clip-rule="evenodd" d="M311 153V130.865L309.713 129.986L308.426 129.108L307.139 128.23L305.853 115.206L304.566 126.473L303.279 131.667L301.992 124.716L300.705 129.91L299.399 124.189L298.092 124.541L296.786 112.747L295.48 125.243L294.173 113.449L292.867 125.946L291.561 126.297L290.254 138.794L288.928 124.014L287.603 133.524L286.277 118.743L284.951 116.108L283.625 101.328L282.299 110.838L280.973 96.0574L279.647 105.568L277.074 118.503L274.5 107.149L271.926 120.084L269.353 108.73L266.701 109.872L264.049 98.8682L261.397 112.155L258.746 113.297L256.133 110.838L253.52 108.378L250.908 118.064L248.295 103.459L245.721 116.132L243.147 104.514L240.574 105.041L238 93.4223L235.387 98.7162L232.775 79.7196L230.162 85.0135L227.549 78.1622L224.975 90.7466L222.402 79.0405L219.828 91.625L217.254 81.1334L215.928 87.6529L214.603 69.8817L211.951 71.9899L209.299 98.3885L206.647 82.2787L205.341 87.4426L204.035 81.6757L202.728 86.8395L201.422 77.4291L200.116 68.0186L198.809 71.9679L197.503 64.9865L196.197 73.7939L193.584 55.2973L190.971 64.7348L188.358 69.3142L185.746 60.5338L183.133 73.5845L180.52 59.9156L177.908 39.5667L175.295 45.9375L172.721 38.685L170.147 43.5777L167.574 33.2889L165 23L165 153L311 153Z" fill="#60C2A4"/>
</svg>
