<svg width="14" height="14" viewBox="0 0 14 14" fill="none" xmlns="http://www.w3.org/2000/svg">
<path fill-rule="evenodd" clip-rule="evenodd" d="M10.78 6.159C10.6394 6.01855 10.4488 5.93966 10.25 5.93966C10.0512 5.93966 9.86063 6.01855 9.72 6.159L7.75 8.129V0.75C7.75 0.551088 7.67098 0.360322 7.53033 0.21967C7.38968 0.0790177 7.19891 0 7 0C6.80109 0 6.61032 0.0790177 6.46967 0.21967C6.32902 0.360322 6.25 0.551088 6.25 0.75V8.129L4.28 6.159C4.13783 6.02652 3.94978 5.9544 3.75548 5.95783C3.56118 5.96125 3.37579 6.03997 3.23838 6.17738C3.10097 6.31479 3.02225 6.50018 3.01883 6.69448C3.0154 6.88878 3.08752 7.07683 3.22 7.219L6.47 10.469L7 11L7.53 10.47L10.78 7.22C10.8497 7.15035 10.905 7.06765 10.9427 6.97662C10.9804 6.8856 10.9998 6.78803 10.9998 6.6895C10.9998 6.59097 10.9804 6.4934 10.9427 6.40238C10.905 6.31135 10.8497 6.22865 10.78 6.159ZM1.5 8.75C1.5 8.65151 1.4806 8.55398 1.44291 8.46299C1.40522 8.37199 1.34997 8.28931 1.28033 8.21967C1.21069 8.15003 1.12801 8.09478 1.03701 8.05709C0.946018 8.0194 0.848491 8 0.75 8C0.651509 8 0.553982 8.0194 0.462987 8.05709C0.371993 8.09478 0.289314 8.15003 0.21967 8.21967C0.150026 8.28931 0.0947814 8.37199 0.0570904 8.46299C0.0193994 8.55398 -1.46764e-09 8.65151 0 8.75V12C0 12.5304 0.210714 13.0391 0.585786 13.4142C0.960859 13.7893 1.46957 14 2 14H12C12.5304 14 13.0391 13.7893 13.4142 13.4142C13.7893 13.0391 14 12.5304 14 12V8.75C14 8.55109 13.921 8.36032 13.7803 8.21967C13.6397 8.07902 13.4489 8 13.25 8C13.0511 8 12.8603 8.07902 12.7197 8.21967C12.579 8.36032 12.5 8.55109 12.5 8.75V12C12.5 12.1326 12.4473 12.2598 12.3536 12.3536C12.2598 12.4473 12.1326 12.5 12 12.5H2C1.86739 12.5 1.74021 12.4473 1.64645 12.3536C1.55268 12.2598 1.5 12.1326 1.5 12V8.75Z"/>
</svg>
