<svg width="14" height="15" viewBox="0 0 14 15" fill="none" xmlns="http://www.w3.org/2000/svg">
<path d="M10.8334 2.7265L9.14671 4.01984L9.75338 6.05984L8.00005 4.85317L6.24671 6.05984L6.85338 4.01984L5.16671 2.7265L7.29338 2.6665L8.00005 0.666504L8.70671 2.6665L10.8334 2.7265ZM13.1667 7.33317L12.0734 8.1665L12.4667 9.4865L11.3334 8.7065L10.2 9.4865L10.5934 8.1665L9.50005 7.33317L10.8734 7.29984L11.3334 5.99984L11.7934 7.29984L13.1667 7.33317ZM11.6467 10.6332C12.2 10.5798 12.7934 11.3665 12.44 11.8665C12.2267 12.1665 12 12.4465 11.72 12.7132C9.11338 15.3332 4.89338 15.3332 2.29338 12.7132C-0.313288 10.1132 -0.313288 5.8865 2.29338 3.2865C2.56005 3.01984 2.84005 2.77984 3.14005 2.5665C3.64005 2.21317 4.42671 2.8065 4.37338 3.35984C4.19338 5.2665 4.83338 7.2465 6.30005 8.7065C7.76005 10.1732 9.73338 10.8132 11.6467 10.6332ZM10.5534 11.9798C8.66671 11.8732 6.80005 11.0932 5.35338 9.6665C3.90671 8.2065 3.13338 6.33317 3.02671 4.45317C1.15338 6.5465 1.22671 9.75984 3.23338 11.7732C5.24671 13.7798 8.46005 13.8532 10.5534 11.9798Z" fill="#616678"/>
</svg>
