<svg width="12" height="14" viewBox="0 0 12 14" fill="none" xmlns="http://www.w3.org/2000/svg">
<path d="M5.9999 3.66683C6.88395 3.66683 7.7318 4.01802 8.35692 4.64314C8.98204 5.26826 9.33323 6.11611 9.33323 7.00016C9.33323 7.88422 8.98204 8.73206 8.35692 9.35719C7.7318 9.98231 6.88395 10.3335 5.9999 10.3335C5.11584 10.3335 4.26799 9.98231 3.64287 9.35719C3.01775 8.73206 2.66656 7.88422 2.66656 7.00016C2.66656 6.11611 3.01775 5.26826 3.64287 4.64314C4.26799 4.01802 5.11584 3.66683 5.9999 3.66683ZM5.9999 5.00016C5.46946 5.00016 4.96075 5.21088 4.58568 5.58595C4.21061 5.96102 3.9999 6.46973 3.9999 7.00016C3.9999 7.5306 4.21061 8.0393 4.58568 8.41438C4.96075 8.78945 5.46946 9.00016 5.9999 9.00016C6.53033 9.00016 7.03904 8.78945 7.41411 8.41438C7.78918 8.0393 7.9999 7.5306 7.9999 7.00016C7.9999 6.46973 7.78918 5.96102 7.41411 5.58595C7.03904 5.21088 6.53033 5.00016 5.9999 5.00016ZM5.9999 0.333496L7.59323 2.6135C7.0999 2.4335 6.5599 2.3335 5.9999 2.3335C5.4399 2.3335 4.8999 2.4335 4.40656 2.6135L5.9999 0.333496ZM0.226562 3.66683L2.9999 3.4335C2.5999 3.7735 2.2399 4.18683 1.9599 4.66683C1.66656 5.16016 1.4999 5.66683 1.40656 6.1935L0.226562 3.66683ZM0.239896 10.3335L1.41323 7.82016C1.50656 8.3335 1.68656 8.8535 1.96656 9.3335C2.24656 9.82683 2.60656 10.2402 2.9999 10.5802L0.239896 10.3335ZM11.7666 3.66683L10.5866 6.1935C10.4932 5.66683 10.3132 5.1535 10.0332 4.66683C9.75323 4.18683 9.3999 3.76683 8.9999 3.42683L11.7666 3.66683ZM11.7599 10.3335L8.9999 10.5735C9.39323 10.2335 9.74656 9.8135 10.0266 9.3335C10.3066 8.84683 10.4866 8.3335 10.5799 7.80683L11.7599 10.3335ZM5.9999 13.6668L4.39323 11.3735C4.88656 11.5535 5.42656 11.6668 5.9999 11.6668C6.54656 11.6668 7.08656 11.5535 7.5799 11.3735L5.9999 13.6668Z" fill="#0E111A"/>
</svg>
