<svg width="12" height="15" viewBox="0 0 12 15" xmlns="http://www.w3.org/2000/svg">
<path d="M5.9999 4.16667C6.88395 4.16667 7.7318 4.51786 8.35692 5.14298C8.98204 5.7681 9.33323 6.61594 9.33323 7.5C9.33323 8.38405 8.98204 9.2319 8.35692 9.85702C7.7318 10.4821 6.88395 10.8333 5.9999 10.8333C5.11584 10.8333 4.26799 10.4821 3.64287 9.85702C3.01775 9.2319 2.66656 8.38405 2.66656 7.5C2.66656 6.61594 3.01775 5.7681 3.64287 5.14298C4.26799 4.51786 5.11584 4.16667 5.9999 4.16667ZM5.9999 5.5C5.46946 5.5 4.96075 5.71071 4.58568 6.08579C4.21061 6.46086 3.9999 6.96957 3.9999 7.5C3.9999 8.03043 4.21061 8.53914 4.58568 8.91421C4.96075 9.28929 5.46946 9.5 5.9999 9.5C6.53033 9.5 7.03904 9.28929 7.41411 8.91421C7.78918 8.53914 7.9999 8.03043 7.9999 7.5C7.9999 6.96957 7.78918 6.46086 7.41411 6.08579C7.03904 5.71071 6.53033 5.5 5.9999 5.5ZM5.9999 0.833333L7.59323 3.11333C7.0999 2.93333 6.5599 2.83333 5.9999 2.83333C5.4399 2.83333 4.8999 2.93333 4.40656 3.11333L5.9999 0.833333ZM0.226562 4.16667L2.9999 3.93333C2.5999 4.27333 2.2399 4.68667 1.9599 5.16667C1.66656 5.66 1.4999 6.16667 1.40656 6.69333L0.226562 4.16667ZM0.239896 10.8333L1.41323 8.32C1.50656 8.83333 1.68656 9.35333 1.96656 9.83333C2.24656 10.3267 2.60656 10.74 2.9999 11.08L0.239896 10.8333ZM11.7666 4.16667L10.5866 6.69333C10.4932 6.16667 10.3132 5.65333 10.0332 5.16667C9.75323 4.68667 9.3999 4.26667 8.9999 3.92667L11.7666 4.16667ZM11.7599 10.8333L8.9999 11.0733C9.39323 10.7333 9.74656 10.3133 10.0266 9.83333C10.3066 9.34667 10.4866 8.83333 10.5799 8.30667L11.7599 10.8333ZM5.9999 14.1667L4.39323 11.8733C4.88656 12.0533 5.42656 12.1667 5.9999 12.1667C6.54656 12.1667 7.08656 12.0533 7.5799 11.8733L5.9999 14.1667Z" />
</svg>
