<svg width="20" height="20" viewBox="0 0 20 20" fill="auto" xmlns="http://www.w3.org/2000/svg">
<path d="M11 2.069V0H9V2.069C7.2403 2.29368 5.60497 3.09617 4.35057 4.35057C3.09617 5.60497 2.29368 7.2403 2.069 9H0V11H2.069C2.29335 12.7598 3.09574 14.3953 4.3502 15.6498C5.60466 16.9043 7.24017 17.7066 9 17.931V20H11V17.931C12.7599 17.7068 14.3955 16.9045 15.65 15.65C16.9045 14.3955 17.7068 12.7599 17.931 11H20V9H17.931C17.7066 7.24017 16.9043 5.60466 15.6498 4.3502C14.3953 3.09574 12.7598 2.29335 11 2.069ZM10 16C6.691 16 4 13.309 4 10C4 6.691 6.691 4 10 4C13.309 4 16 6.691 16 10C16 13.309 13.309 16 10 16Z" />
</svg>
