<svg width="16" height="16" viewBox="0 0 16 16" fill="none" xmlns="http://www.w3.org/2000/svg">
<path stroke="#9EA2AE" stroke-linecap="round" stroke-linejoin="round" d="M13.3307 7.99996H6.9974M11.9974 9.99996L13.9974 7.99996L11.9974 5.99996M8.66406 4.66663V3.99996C8.66406 3.64634 8.52359 3.3072 8.27354 3.05715C8.02349 2.8071 7.68435 2.66663 7.33073 2.66663H3.9974C3.64377 2.66663 3.30464 2.8071 3.05459 3.05715C2.80454 3.3072 2.66406 3.64634 2.66406 3.99996V12C2.66406 12.3536 2.80454 12.6927 3.05459 12.9428C3.30464 13.1928 3.64377 13.3333 3.9974 13.3333H7.33073C7.68435 13.3333 8.02349 13.1928 8.27354 12.9428C8.52359 12.6927 8.66406 12.3536 8.66406 12V11.3333"/>
</svg>
