<svg width="25" height="24" viewBox="0 0 25 24" fill="auto" xmlns="http://www.w3.org/2000/svg">
<path d="M2.5 7.05929V19.4279C2.5 19.8321 2.89688 20.1086 3.26181 19.9586L8.05556 17.7143V4L3.19861 5.99821C2.99242 6.08304 2.81567 6.22946 2.69115 6.41858C2.56663 6.60771 2.50005 6.83087 2.5 7.05929V7.05929ZM9.16667 17.7143L15.8333 20V6.28571L9.16667 4V17.7143ZM21.7382 4.04143L16.9444 6.28571V20L21.8014 18.0018C22.0076 17.917 22.1844 17.7706 22.3089 17.5815C22.4334 17.3923 22.5 17.1691 22.5 16.9407V4.57214C22.5 4.16786 22.1031 3.89143 21.7382 4.04143Z" fill="auto"/>
</svg>
