<svg width="10" height="12" viewBox="0 0 10 12" xmlns="http://www.w3.org/2000/svg">
<path d="M1.15516 12C0.963266 11.9996 0.774768 11.9471 0.60821 11.8477C0.233157 11.626 0 11.1955 0 10.7283V1.27179C0 0.803206 0.233157 0.374077 0.60821 0.152339C0.778734 0.0500909 0.972453 -0.00249065 1.16912 9.06639e-05C1.36578 0.00267198 1.55817 0.0603215 1.72618 0.167013L9.47257 5.00482C9.63401 5.11043 9.7671 5.2571 9.85935 5.43105C9.9516 5.60501 10 5.80057 10 5.99938C10 6.19819 9.9516 6.39374 9.85935 6.5677C9.7671 6.74166 9.63401 6.88832 9.47257 6.99394L1.72493 11.833C1.553 11.9415 1.35607 11.9992 1.15516 12Z"/>
</svg>
