<svg width="39" height="26" viewBox="0 0 39 26" fill="none" xmlns="http://www.w3.org/2000/svg">
<path d="M31.1375 9.89634C30.0608 4.43384 25.2633 0.333008 19.5 0.333008C14.9242 0.333008 10.95 2.92967 8.97083 6.72967C4.205 7.23634 0.5 11.2738 0.5 16.1663C0.5 18.6859 1.50089 21.1023 3.28249 22.8839C5.06408 24.6655 7.48044 25.6663 10 25.6663H30.5833C31.623 25.6663 32.6524 25.4616 33.6129 25.0637C34.5734 24.6659 35.4461 24.0827 36.1813 23.3476C36.9164 22.6125 37.4995 21.7397 37.8974 20.7793C38.2952 19.8188 38.5 18.7893 38.5 17.7497C38.5 13.5697 35.2542 10.1813 31.1375 9.89634ZM30.5833 22.4997H10C8.3203 22.4997 6.70939 21.8324 5.52166 20.6447C4.33393 19.457 3.66667 17.846 3.66667 16.1663C3.66667 12.9205 6.08917 10.213 9.30333 9.88051L10.9975 9.70634L11.7892 8.20218C13.2933 5.30468 16.2383 3.49967 19.5 3.49967C23.6483 3.49967 27.2267 6.44468 28.0342 10.5138L28.5092 12.8888L30.9317 13.063C33.4017 13.2213 35.3333 15.2955 35.3333 17.7497C35.3333 19.0095 34.8329 20.2176 33.9421 21.1084C33.0513 21.9992 31.8431 22.4997 30.5833 22.4997ZM13.1667 14.583H17.2042V19.333H21.7958V14.583H25.8333L19.5 8.24967L13.1667 14.583Z" fill="#CDCFD6"/>
</svg>
