<svg width="24" height="24" viewBox="0 0 24 24" fill="auto" xmlns="http://www.w3.org/2000/svg">
<path d="M20.7188 12C20.7188 16.8163 16.8149 20.7188 12 20.7188C7.18511 20.7188 3.28125 16.8163 3.28125 12C3.28125 7.18651 7.18511 3.28125 12 3.28125C16.8149 3.28125 20.7188 7.18651 20.7188 12ZM12 13.7578C11.1069 13.7578 10.3828 14.4819 10.3828 15.375C10.3828 16.2681 11.1069 16.9922 12 16.9922C12.8931 16.9922 13.6172 16.2681 13.6172 15.375C13.6172 14.4819 12.8931 13.7578 12 13.7578ZM10.4646 7.94487L10.7254 12.7261C10.7376 12.9499 10.9226 13.125 11.1467 13.125H12.8533C13.0774 13.125 13.2624 12.9499 13.2746 12.7261L13.5354 7.94487C13.5486 7.7032 13.3562 7.5 13.1141 7.5H10.8858C10.6438 7.5 10.4514 7.7032 10.4646 7.94487Z" fill="auto"/>
</svg>
