<svg width="128" height="104" viewBox="0 0 128 104" fill="none" xmlns="http://www.w3.org/2000/svg">
<path d="M8.092 30.9C8.092 34.148 10.62 36.692 14.028 36.692C16.108 36.692 17.852 35.684 18.892 34.164L17.548 33.236C16.796 34.404 15.484 35.156 14.012 35.156C11.676 35.156 9.788 33.38 9.788 30.9C9.788 28.436 11.66 26.644 14.012 26.644C15.436 26.644 16.732 27.412 17.516 28.564L18.86 27.652C17.788 26.132 16.044 25.108 13.996 25.108C10.62 25.108 8.092 27.7 8.092 30.9ZM21.8569 31.62C21.8569 30.436 22.6409 29.62 23.7609 29.62C24.8489 29.62 25.5849 30.42 25.5849 31.572V36.5H27.2009V31.62C27.2009 30.436 27.9849 29.62 29.1049 29.62C30.1929 29.62 30.9289 30.42 30.9289 31.572V36.5H32.5449V31.236C32.5449 29.524 31.3129 28.164 29.5049 28.164C28.3369 28.164 27.3609 28.756 26.8329 29.7C26.3529 28.772 25.3929 28.164 24.1609 28.164C23.2329 28.164 22.4169 28.548 21.8569 29.204V28.34H20.2409V36.5H21.8569V31.62ZM42.7719 36.5V25.3H41.1559V29.364C40.4199 28.612 39.3959 28.164 38.2759 28.164C35.8759 28.164 33.9719 30.068 33.9719 32.436C33.9719 34.788 35.8599 36.692 38.2759 36.692C39.4119 36.692 40.4359 36.228 41.1719 35.476V36.5H42.7719ZM41.1879 32.436C41.1879 34.004 39.9399 35.268 38.3879 35.268C36.8359 35.268 35.5879 34.004 35.5879 32.436C35.5879 30.852 36.8359 29.604 38.3879 29.604C39.9399 29.604 41.1879 30.852 41.1879 32.436ZM51.9735 34.292V31.412H54.8055V30.116H51.9735V27.3H50.6775V30.116H47.8455V31.412H50.6775V34.292H51.9735Z" fill="white"/>
<rect x="60.4539" y="17.4588" width="38.5" height="53.5" rx="19.25" transform="rotate(-30 60.4539 17.4588)" stroke="white" stroke-width="2"/>
<path d="M77.75 8.47865C75.646 9.69338 73.8019 11.3106 72.323 13.238C70.844 15.1655 69.7592 17.3653 69.1304 19.712C68.5016 22.0586 68.3412 24.5062 68.6583 26.9149C68.9754 29.3235 69.7638 31.6462 70.9785 33.7501L87 24.5001L77.75 8.47865Z" fill="#60C2A4"/>
<rect x="82.1768" y="21.0832" width="4.5" height="14.25" rx="2.25" transform="rotate(-30 82.1768 21.0832)" fill="white"/>
<path d="M112.399 1V17.8" stroke="#60C2A4" stroke-width="2" stroke-miterlimit="10" stroke-linecap="round" stroke-linejoin="round"/>
<path d="M110 3.4L112.4 1L114.8 3.4" stroke="#60C2A4" stroke-width="2" stroke-miterlimit="10" stroke-linecap="round" stroke-linejoin="round"/>
<path d="M110 15.3994L112.4 17.7994L114.8 15.3994" stroke="#60C2A4" stroke-width="2" stroke-miterlimit="10" stroke-linecap="round" stroke-linejoin="round"/>
<path d="M120.8 9.39941H104" stroke="#60C2A4" stroke-width="2" stroke-miterlimit="10" stroke-linecap="round" stroke-linejoin="round"/>
<path d="M118.399 7L120.799 9.4L118.399 11.8" stroke="#60C2A4" stroke-width="2" stroke-miterlimit="10" stroke-linecap="round" stroke-linejoin="round"/>
<path d="M106.4 7L104 9.4L106.4 11.8" stroke="#60C2A4" stroke-width="2" stroke-miterlimit="10" stroke-linecap="round" stroke-linejoin="round"/>
<path d="M8.092 94.4C8.092 97.632 10.684 100.192 13.996 100.192C17.292 100.192 19.884 97.632 19.884 94.4C19.884 91.184 17.292 88.608 13.996 88.608C10.684 88.608 8.092 91.184 8.092 94.4ZM9.788 94.4C9.788 92.016 11.66 90.144 13.996 90.144C16.332 90.144 18.188 92.016 18.188 94.4C18.188 96.8 16.332 98.656 13.996 98.656C11.66 98.656 9.788 96.8 9.788 94.4ZM25.5248 93.28V91.776H24.9648C24.0687 91.776 23.4128 92.192 23.0127 92.848V91.84H21.4127V100H23.0287V95.36C23.0287 94.096 23.7968 93.28 24.8527 93.28H25.5248ZM26.7602 100H28.3602V98.976C29.0962 99.728 30.1363 100.192 31.2723 100.192C33.6723 100.192 35.5603 98.288 35.5603 95.936C35.5603 93.568 33.6723 91.664 31.2723 91.664C30.1363 91.664 29.1122 92.128 28.3762 92.88V88.8H26.7602V100ZM28.3442 95.936C28.3442 94.352 29.6082 93.104 31.1602 93.104C32.6962 93.104 33.9602 94.352 33.9602 95.936C33.9602 97.504 32.6962 98.768 31.1602 98.768C29.5922 98.768 28.3442 97.504 28.3442 95.936ZM37.7987 90.704C38.3267 90.704 38.7427 90.272 38.7427 89.728C38.7427 89.2 38.3267 88.768 37.7987 88.768C37.2547 88.768 36.8227 89.2 36.8227 89.728C36.8227 90.272 37.2547 90.704 37.7987 90.704ZM38.5987 91.84H36.9827V100H38.5987V91.84ZM43.2262 100H44.7782V98.576H43.7062C43.2102 98.576 42.9062 98.336 42.9062 97.888V93.264H44.7782V91.84H42.9062V89.44H41.2902V91.84H39.7382V93.264H41.2902V98.24C41.2902 99.264 41.9782 100 43.2262 100ZM56.0592 99.168C56.6192 99.792 57.0992 100 57.8672 100H58.7312V98.544H58.1552C57.8192 98.544 57.5312 98.416 57.2112 98.064L56.6352 97.44L58.5872 94.496L57.3392 93.76L55.6592 96.384L53.6592 94.192L54.0112 94C55.3712 93.264 55.9792 92.432 55.9792 91.28C55.9792 89.744 54.7632 88.656 53.0512 88.656C51.3072 88.656 50.0912 89.808 50.0912 91.424C50.0912 92.272 50.4432 93.024 51.2752 93.936L51.1312 94.016C49.5312 94.832 48.8592 95.744 48.8592 97.12C48.8592 98.88 50.3792 100.192 52.4432 100.192C53.7552 100.192 54.7472 99.776 55.6752 98.752L56.0592 99.168ZM52.5552 92.992C51.9632 92.352 51.7072 91.872 51.7072 91.376C51.7072 90.576 52.2512 90.032 53.0512 90.032C53.8032 90.032 54.3792 90.608 54.3792 91.36C54.3792 92.016 54.0272 92.48 53.2112 92.912L52.7152 93.168L52.5552 92.992ZM50.5232 97.056C50.5232 96.304 50.9392 95.712 51.8352 95.232L52.2512 94.992L54.7312 97.712C54.0752 98.448 53.3872 98.752 52.5392 98.752C51.3872 98.752 50.5232 98.016 50.5232 97.056ZM64.7589 100L64.7269 90.96L68.3909 100H69.9109L73.5749 90.944L73.5589 100H75.1909V88.8H72.8389L69.1749 97.872L65.5269 88.8H63.1429V100H64.7589ZM76.5744 97.744C76.5744 99.168 77.7584 100.176 79.3584 100.176C80.4464 100.176 81.3584 99.728 81.9024 98.976C82.1104 99.616 82.6864 100 83.4704 100H84.2704V98.576H83.8544C83.5344 98.576 83.3744 98.416 83.3744 98.112V94.432C83.3744 92.768 82.1744 91.696 80.3344 91.696C79.1184 91.696 78.0464 92.048 77.1984 92.768L77.9184 93.936C78.6064 93.392 79.3264 93.152 80.1104 93.152C81.1824 93.152 81.7904 93.712 81.7904 94.64V95.168L79.2464 95.36C77.5504 95.472 76.5744 96.32 76.5744 97.744ZM78.1264 97.728C78.1264 97.056 78.5904 96.656 79.4864 96.592L81.7904 96.4V97.072C81.7904 98.096 80.8464 98.912 79.6784 98.912C78.7664 98.912 78.1264 98.432 78.1264 97.728ZM85.4621 91.84V103.216H87.0781V98.976C87.8141 99.728 88.8381 100.176 89.9741 100.176C92.3741 100.176 94.2621 98.288 94.2621 95.92C94.2621 93.568 92.3741 91.648 89.9741 91.648C88.8381 91.648 87.7981 92.112 87.0621 92.864V91.84H85.4621ZM87.0461 95.92C87.0461 94.352 88.2941 93.088 89.8621 93.088C91.3981 93.088 92.6621 94.352 92.6621 95.92C92.6621 97.488 91.3981 98.752 89.8621 98.752C88.3101 98.752 87.0461 97.488 87.0461 95.92ZM98.5837 90.272H102.072V100H103.752V90.272H107.256V88.8H98.5837V90.272ZM109.336 90.704C109.864 90.704 110.28 90.272 110.28 89.728C110.28 89.2 109.864 88.768 109.336 88.768C108.792 88.768 108.36 89.2 108.36 89.728C108.36 90.272 108.792 90.704 109.336 90.704ZM110.136 91.84H108.52V100H110.136V91.84ZM113.484 100V88.8H111.868V100H113.484ZM118.111 100H119.663V98.576H118.591C118.095 98.576 117.791 98.336 117.791 97.888V93.264H119.663V91.84H117.791V89.44H116.175V91.84H114.623V93.264H116.175V98.24C116.175 99.264 116.863 100 118.111 100Z" fill="#CDCFD6"/>
</svg>
