<svg width="128" height="104" viewBox="0 0 128 104" xmlns="http://www.w3.org/2000/svg">
<rect x="33.9539" y="17.4588" width="38.5" height="53.5" rx="19.25" transform="rotate(-30 33.9539 17.4588)" stroke="" stroke-width="2" fill="transparent"/>
<path d="M51.25 8.47865C49.146 9.69338 47.3019 11.3106 45.823 13.238C44.344 15.1655 43.2592 17.3653 42.6304 19.712C42.0016 22.0586 41.8412 24.5062 42.1583 26.9149C42.4754 29.3235 43.2638 31.6462 44.4785 33.7501L60.5 24.5001L51.25 8.47865Z" fill="#60C2A4" stroke="transparent"/>
<rect x="55.6768" y="21.0832" width="4.5" height="14.25" rx="2.25" transform="rotate(-30 55.6768 21.0832)" fill=""/>
<path d="M85.8994 1V17.8" stroke="#60C2A4" stroke-width="2" stroke-miterlimit="10" stroke-linecap="round" stroke-linejoin="round"/>
<path d="M83.5 3.4L85.9 1L88.3 3.4" stroke="#60C2A4" stroke-width="2" stroke-miterlimit="10" stroke-linecap="round" stroke-linejoin="round"/>
<path d="M83.5 15.3994L85.9 17.7994L88.3 15.3994" stroke="#60C2A4" stroke-width="2" stroke-miterlimit="10" stroke-linecap="round" stroke-linejoin="round"/>
<path d="M94.3 9.39941H77.5" stroke="#60C2A4" stroke-width="2" stroke-miterlimit="10" stroke-linecap="round" stroke-linejoin="round"/>
<path d="M91.8994 7L94.2994 9.4L91.8994 11.8" stroke="#60C2A4" stroke-width="2" stroke-miterlimit="10" stroke-linecap="round" stroke-linejoin="round"/>
<path d="M79.9 7L77.5 9.4L79.9 11.8" stroke="#60C2A4" stroke-width="2" stroke-miterlimit="10" stroke-linecap="round" stroke-linejoin="round"/>
<path d="M36.348 100H38.028V95.504H40.7C42.636 95.504 44.108 94.016 44.108 92.16C44.108 90.272 42.636 88.8 40.7 88.8H36.348V100ZM40.572 90.272C41.676 90.272 42.412 91.104 42.412 92.176C42.412 93.232 41.676 94.064 40.572 94.064H38.028V90.272H40.572ZM44.3881 97.744C44.3881 99.168 45.5721 100.176 47.1721 100.176C48.2601 100.176 49.1721 99.728 49.7161 98.976C49.9241 99.616 50.5001 100 51.2841 100H52.0841V98.576H51.6681C51.3481 98.576 51.1881 98.416 51.1881 98.112V94.432C51.1881 92.768 49.9881 91.696 48.1481 91.696C46.9321 91.696 45.8601 92.048 45.0121 92.768L45.7321 93.936C46.4201 93.392 47.1401 93.152 47.9241 93.152C48.9961 93.152 49.6041 93.712 49.6041 94.64V95.168L47.0601 95.36C45.3641 95.472 44.3881 96.32 44.3881 97.744ZM45.9401 97.728C45.9401 97.056 46.4041 96.656 47.3001 96.592L49.6041 96.4V97.072C49.6041 98.096 48.6601 98.912 47.4921 98.912C46.5801 98.912 45.9401 98.432 45.9401 97.728ZM60.4279 94.784C60.4279 93.04 59.1639 91.664 57.2919 91.664C56.3159 91.664 55.4679 92.064 54.8919 92.736V91.84H53.2759V100H54.8919V95.152C54.8919 93.936 55.7239 93.12 56.8919 93.12C58.0439 93.12 58.8119 93.92 58.8119 95.104V100H60.4279V94.784ZM69.3066 94.784C69.3066 93.04 68.0426 91.664 66.1706 91.664C65.1946 91.664 64.3466 92.064 63.7706 92.736V91.84H62.1546V100H63.7706V95.152C63.7706 93.936 64.6026 93.12 65.7706 93.12C66.9226 93.12 67.6906 93.92 67.6906 95.104V100H69.3066V94.784ZM71.8494 90.704C72.3774 90.704 72.7934 90.272 72.7934 89.728C72.7934 89.2 72.3774 88.768 71.8494 88.768C71.3054 88.768 70.8734 89.2 70.8734 89.728C70.8734 90.272 71.3054 90.704 71.8494 90.704ZM72.6494 91.84H71.0334V100H72.6494V91.84ZM81.5329 94.784C81.5329 93.04 80.2689 91.664 78.3969 91.664C77.4209 91.664 76.5729 92.064 75.9969 92.736V91.84H74.3809V100H75.9969V95.152C75.9969 93.936 76.8289 93.12 77.9969 93.12C79.1489 93.12 79.9169 93.92 79.9169 95.104V100H81.5329V94.784ZM91.6596 91.84H90.0436V92.848C89.3076 92.112 88.3156 91.664 87.1956 91.664C84.8436 91.664 82.9556 93.52 82.9556 95.856C82.9556 98.224 84.8276 100.08 87.1956 100.08C88.2996 100.08 89.2916 99.648 90.0276 98.928V100.128C90.0276 101.248 89.4516 101.84 88.2836 101.84H86.5876V103.216H88.6356C90.4916 103.216 91.6596 102.08 91.6596 100.256V91.84ZM84.5556 95.856C84.5556 94.336 85.7876 93.088 87.3076 93.088C88.8276 93.088 90.0596 94.32 90.0596 95.856C90.0596 97.408 88.8436 98.656 87.3076 98.656C85.7876 98.656 84.5556 97.424 84.5556 95.856Z" fill="" stroke="transparent"/>
</svg>
