<svg width="128" height="104" viewBox="0 0 128 104" fill="none" xmlns="http://www.w3.org/2000/svg">
<rect x="44.75" y="4.25" width="38.5" height="53.5" rx="19.25" stroke="white" stroke-width="2"/>
<rect x="61.75" y="18.25" width="4.5" height="14.25" rx="2.25" fill="#60C2A4"/>
<path d="M91.8994 1V17.8" stroke="#60C2A4" stroke-width="2" stroke-miterlimit="10" stroke-linecap="round" stroke-linejoin="round"/>
<path d="M89.5 3.4L91.9 1L94.3 3.4" stroke="#60C2A4" stroke-width="2" stroke-miterlimit="10" stroke-linecap="round" stroke-linejoin="round"/>
<path d="M89.5 16.75L91.9 19.15L94.3 16.75" stroke="#60C2A4" stroke-width="2" stroke-miterlimit="10" stroke-linecap="round" stroke-linejoin="round"/>
<path d="M43.204 90.272H48.9L42.964 98.896V100H51.028V98.528H45.14L51.044 89.936V88.8H43.204V90.272ZM60.3924 95.92C60.3924 93.568 58.4404 91.664 56.0084 91.664C53.5764 91.664 51.6244 93.568 51.6244 95.92C51.6244 98.272 53.5764 100.192 56.0084 100.192C58.4404 100.192 60.3924 98.272 60.3924 95.92ZM58.7764 95.92C58.7764 97.504 57.5444 98.752 56.0084 98.752C54.4724 98.752 53.2404 97.504 53.2404 95.92C53.2404 94.352 54.4724 93.104 56.0084 93.104C57.5444 93.104 58.7764 94.352 58.7764 95.92ZM70.2867 95.92C70.2867 93.568 68.3348 91.664 65.9028 91.664C63.4707 91.664 61.5187 93.568 61.5187 95.92C61.5187 98.272 63.4707 100.192 65.9028 100.192C68.3348 100.192 70.2867 98.272 70.2867 95.92ZM68.6708 95.92C68.6708 97.504 67.4387 98.752 65.9028 98.752C64.3667 98.752 63.1347 97.504 63.1347 95.92C63.1347 94.352 64.3667 93.104 65.9028 93.104C67.4387 93.104 68.6708 94.352 68.6708 95.92ZM73.3331 95.12C73.3331 93.936 74.1171 93.12 75.2371 93.12C76.3251 93.12 77.0611 93.92 77.0611 95.072V100H78.6771V95.12C78.6771 93.936 79.4611 93.12 80.5811 93.12C81.6691 93.12 82.4051 93.92 82.4051 95.072V100H84.0211V94.736C84.0211 93.024 82.7891 91.664 80.9811 91.664C79.8131 91.664 78.8371 92.256 78.3091 93.2C77.8291 92.272 76.8691 91.664 75.6371 91.664C74.7091 91.664 73.8931 92.048 73.3331 92.704V91.84H71.7171V100H73.3331V95.12Z" fill="#CDCFD6"/>
</svg>
