<svg width="108" height="108" viewBox="0 0 108 108" fill="none" xmlns="http://www.w3.org/2000/svg">
<path d="M8.592 53.9C8.592 57.148 11.12 59.692 14.528 59.692C16.608 59.692 18.352 58.684 19.392 57.164L18.048 56.236C17.296 57.404 15.984 58.156 14.512 58.156C12.176 58.156 10.288 56.38 10.288 53.9C10.288 51.436 12.16 49.644 14.512 49.644C15.936 49.644 17.232 50.412 18.016 51.564L19.36 50.652C18.288 49.132 16.544 48.108 14.496 48.108C11.12 48.108 8.592 50.7 8.592 53.9ZM22.1969 54.62C22.1969 53.436 22.9809 52.62 24.1009 52.62C25.1889 52.62 25.9249 53.42 25.9249 54.572V59.5H27.5409V54.62C27.5409 53.436 28.3249 52.62 29.4449 52.62C30.5329 52.62 31.2689 53.42 31.2689 54.572V59.5H32.8849V54.236C32.8849 52.524 31.6529 51.164 29.8449 51.164C28.6769 51.164 27.7009 51.756 27.1729 52.7C26.6929 51.772 25.7329 51.164 24.5009 51.164C23.5729 51.164 22.7569 51.548 22.1969 52.204V51.34H20.5809V59.5H22.1969V54.62ZM42.9519 59.5V48.3H41.3359V52.364C40.5999 51.612 39.5759 51.164 38.4559 51.164C36.0559 51.164 34.1519 53.068 34.1519 55.436C34.1519 57.788 36.0399 59.692 38.4559 59.692C39.5919 59.692 40.6159 59.228 41.3519 58.476V59.5H42.9519ZM41.3679 55.436C41.3679 57.004 40.1199 58.268 38.5679 58.268C37.0159 58.268 35.7679 57.004 35.7679 55.436C35.7679 53.852 37.0159 52.604 38.5679 52.604C40.1199 52.604 41.3679 53.852 41.3679 55.436ZM51.8335 57.292V54.412H54.6655V53.116H51.8335V50.3H50.5375V53.116H47.7055V54.412H50.5375V57.292H51.8335Z" fill="" stroke="transparent"/>
<rect x="59.7436" y="44.9113" width="26" height="36" rx="13" transform="rotate(-30 59.7436 44.9113)" stroke="" fill="transparent"/>
<path d="M66.6755 55.75C65.8548 54.3284 65.3221 52.7591 65.1078 51.1316C64.8935 49.5041 65.0019 47.8504 65.4268 46.2648C65.8516 44.6792 66.5846 43.1928 67.5839 41.8905C68.5832 40.5882 69.8293 39.4954 71.2509 38.6747L77.5009 49.5L66.6755 55.75Z" fill="#60C2A4" stroke="transparent"/>
<rect x="74.4531" y="47.3885" width="3" height="9.5" rx="1.5" transform="rotate(-30 74.4531 47.3885)" fill="" stroke="transparent"/>
<path d="M94.5996 34V45.2" stroke="#60C2A4" stroke-miterlimit="10" stroke-linecap="round" stroke-linejoin="round"/>
<path d="M93 35.6L94.6 34L96.2 35.6" stroke="#60C2A4" stroke-miterlimit="10" stroke-linecap="round" stroke-linejoin="round"/>
<path d="M93 43.5996L94.6 45.1996L96.2 43.5996" stroke="#60C2A4" stroke-miterlimit="10" stroke-linecap="round" stroke-linejoin="round"/>
<path d="M100.2 39.5996H89" stroke="#60C2A4" stroke-miterlimit="10" stroke-linecap="round" stroke-linejoin="round"/>
<path d="M98.5996 38L100.2 39.6L98.5996 41.2" stroke="#60C2A4" stroke-miterlimit="10" stroke-linecap="round" stroke-linejoin="round"/>
<path d="M90.6 38L89 39.6L90.6 41.2" stroke="#60C2A4" stroke-miterlimit="10" stroke-linecap="round" stroke-linejoin="round"/>
</svg>
