<svg width="128" height="128" viewBox="0 0 128 64" xmlns="http://www.w3.org/2000/svg">
<path d="M8.092 30.9C8.092 34.148 10.62 36.692 14.028 36.692C16.108 36.692 17.852 35.684 18.892 34.164L17.548 33.236C16.796 34.404 15.484 35.156 14.012 35.156C11.676 35.156 9.788 33.38 9.788 30.9C9.788 28.436 11.66 26.644 14.012 26.644C15.436 26.644 16.732 27.412 17.516 28.564L18.86 27.652C17.788 26.132 16.044 25.108 13.996 25.108C10.62 25.108 8.092 27.7 8.092 30.9ZM21.8569 31.62C21.8569 30.436 22.6409 29.62 23.7609 29.62C24.8489 29.62 25.5849 30.42 25.5849 31.572V36.5H27.2009V31.62C27.2009 30.436 27.9849 29.62 29.1049 29.62C30.1929 29.62 30.9289 30.42 30.9289 31.572V36.5H32.5449V31.236C32.5449 29.524 31.3129 28.164 29.5049 28.164C28.3369 28.164 27.3609 28.756 26.8329 29.7C26.3529 28.772 25.3929 28.164 24.1609 28.164C23.2329 28.164 22.4169 28.548 21.8569 29.204V28.34H20.2409V36.5H21.8569V31.62ZM42.7719 36.5V25.3H41.1559V29.364C40.4199 28.612 39.3959 28.164 38.2759 28.164C35.8759 28.164 33.9719 30.068 33.9719 32.436C33.9719 34.788 35.8599 36.692 38.2759 36.692C39.4119 36.692 40.4359 36.228 41.1719 35.476V36.5H42.7719ZM41.1879 32.436C41.1879 34.004 39.9399 35.268 38.3879 35.268C36.8359 35.268 35.5879 34.004 35.5879 32.436C35.5879 30.852 36.8359 29.604 38.3879 29.604C39.9399 29.604 41.1879 30.852 41.1879 32.436ZM51.9735 34.292V31.412H54.8055V30.116H51.9735V27.3H50.6775V30.116H47.8455V31.412H50.6775V34.292H51.9735Z" stroke="transparent" fill=""/>
<rect x="60.4539" y="17.4588" width="38.5" height="53.5" rx="19.25" transform="rotate(-30 60.4539 17.4588)" stroke="" stroke-width="2" fill="transparent" />
<path d="M77.75 8.47865C75.646 9.69338 73.8019 11.3106 72.323 13.238C70.844 15.1655 69.7592 17.3653 69.1304 19.712C68.5016 22.0586 68.3412 24.5062 68.6583 26.9149C68.9754 29.3235 69.7638 31.6462 70.9785 33.7501L87 24.5001L77.75 8.47865Z" fill="#60C2A4" stroke="transparent" />
<rect x="82.1768" y="21.0832" width="4.5" height="14.25" rx="2.25" transform="rotate(-30 82.1768 21.0832)" fill=""/>
<path d="M112.399 1V17.8" stroke="#60C2A4" stroke-width="2" stroke-miterlimit="10" stroke-linecap="round" stroke-linejoin="round"/>
<path d="M110 3.4L112.4 1L114.8 3.4" stroke="#60C2A4" stroke-width="2" stroke-miterlimit="10" stroke-linecap="round" stroke-linejoin="round"/>
<path d="M110 15.3994L112.4 17.7994L114.8 15.3994" stroke="#60C2A4" stroke-width="2" stroke-miterlimit="10" stroke-linecap="round" stroke-linejoin="round"/>
<path d="M120.8 9.39941H104" stroke="#60C2A4" stroke-width="2" stroke-miterlimit="10" stroke-linecap="round" stroke-linejoin="round"/>
<path d="M118.399 7L120.799 9.4L118.399 11.8" stroke="#60C2A4" stroke-width="2" stroke-miterlimit="10" stroke-linecap="round" stroke-linejoin="round"/>
<path d="M106.4 7L104 9.4L106.4 11.8" stroke="#60C2A4" stroke-width="2" stroke-miterlimit="10" stroke-linecap="round" stroke-linejoin="round"/>
</svg>
