<svg width="128" height="103" viewBox="0 0 128 103" fill="none" xmlns="http://www.w3.org/2000/svg">
<path d="M68.7883 24.7612L67.9223 25.2612C68.1984 25.7395 68.81 25.9033 69.2882 25.6273C69.7665 25.3512 69.9305 24.7397 69.6545 24.2614L68.7883 24.7612ZM67.5883 22.6828L66.7222 23.1826L66.7223 23.1828L67.5883 22.6828ZM61.3532 26.2828L60.4873 26.783C60.7635 27.2612 61.3751 27.4249 61.8533 27.1488C62.3315 26.8726 62.4953 26.261 62.2192 25.7828L61.3532 26.2828ZM51.7532 9.65561L50.887 10.1554L50.8871 10.1556L51.7532 9.65561ZM45.518 13.2556L46.384 12.7556L46.3839 12.7554L45.518 13.2556ZM53.052 28.3044C53.3281 28.7827 53.9397 28.9466 54.418 28.6704C54.8963 28.3943 55.0602 27.7827 54.784 27.3044L53.052 28.3044ZM46.718 15.334L45.8518 15.8338L45.852 15.834L46.718 15.334ZM40.4827 18.934L39.6166 19.4338L39.6167 19.434L40.4827 18.934ZM52.2167 41.2572C52.4929 41.7355 53.1045 41.8994 53.5827 41.6232C54.061 41.3471 54.2249 40.7355 53.9487 40.2572L52.2167 41.2572ZM50.0827 35.5612L50.9487 35.0612L50.0827 35.5612ZM45.1652 34.2436L45.665 35.1098L45.6654 35.1095L45.1652 34.2436ZM43.8475 39.1612L42.9814 39.661L42.9815 39.6612L43.8475 39.1612ZM48.6475 47.4748L49.5136 46.9748L49.5136 46.9748L48.6475 47.4748ZM79.8235 29.4748L78.9575 29.9748L78.9576 29.9749L79.8235 29.4748ZM75.0235 21.1612L74.1574 21.661L74.1575 21.6612L75.0235 21.1612ZM69.6062 18.9774C67.4052 20.2474 66.6529 23.0612 67.9222 25.261L69.6545 24.2614C68.9366 23.0172 69.3627 21.427 70.6057 20.7098L69.6062 18.9774ZM69.6544 24.2612L68.4544 22.1828L66.7223 23.1828L67.9223 25.2612L69.6544 24.2612ZM68.4545 22.183C67.1848 19.9826 64.371 19.2281 62.1706 20.4993L63.171 22.2311C64.4145 21.5127 66.0047 21.939 66.7222 23.1826L68.4545 22.183ZM62.1706 20.4993C59.9709 21.77 59.2159 24.5822 60.4873 26.783L62.2191 25.7826C61.5009 24.5394 61.9267 22.95 63.171 22.2311L62.1706 20.4993ZM52.6193 9.15583C51.3496 6.95536 48.5358 6.20091 46.3353 7.47211L47.3358 9.2039C48.5793 8.48551 50.1695 8.91186 50.887 10.1554L52.6193 9.15583ZM46.3353 7.47211C44.1356 8.74287 43.3807 11.5551 44.6521 13.7558L46.3839 12.7554C45.6657 11.5121 46.0914 9.92275 47.3358 9.2039L46.3353 7.47211ZM54.784 27.3044L47.584 14.834L45.852 15.834L53.052 28.3044L54.784 27.3044ZM47.5841 14.8342C46.3145 12.6337 43.5006 11.8793 41.3001 13.1505L42.3006 14.8823C43.5441 14.1639 45.1343 14.5903 45.8518 15.8338L47.5841 14.8342ZM41.3001 13.1505C39.1 14.4215 38.3471 17.2337 39.6166 19.4338L41.3489 18.4342C40.6311 17.1903 41.0567 15.6009 42.3006 14.8823L41.3001 13.1505ZM39.6167 19.434L52.2167 41.2572L53.9487 40.2572L41.3487 18.434L39.6167 19.434ZM53.9487 40.2572L50.9487 35.0612L49.2167 36.0612L52.2167 41.2572L53.9487 40.2572ZM50.9487 35.0612C50.2306 33.8173 49.2149 33.0382 48.0387 32.7742C46.8803 32.5142 45.6954 32.7824 44.6649 33.3777L45.6654 35.1095C46.357 34.71 47.0308 34.5978 47.6007 34.7257C48.1528 34.8496 48.7349 35.2267 49.2167 36.0612L50.9487 35.0612ZM44.6654 33.3775C42.4644 34.6474 41.7121 37.4612 42.9814 39.661L44.7137 38.6614C43.9958 37.4172 44.4219 35.827 45.665 35.1098L44.6654 33.3775ZM42.9815 39.6612L47.7815 47.9748L49.5136 46.9748L44.7136 38.6612L42.9815 39.6612ZM47.7815 47.9748C53.028 57.0618 64.6484 60.1767 73.7356 54.9288L72.7354 53.1968C64.6051 57.8922 54.2079 55.1054 49.5136 46.9748L47.7815 47.9748ZM73.7356 54.9288C82.8225 49.6811 85.9374 38.062 80.6895 28.9747L78.9576 29.9749C83.6528 38.1052 80.8662 48.5013 72.7354 53.1968L73.7356 54.9288ZM80.6895 28.9748L75.8895 20.6612L74.1575 21.6612L78.9575 29.9748L80.6895 28.9748ZM75.8897 20.6614C74.6197 18.4605 71.806 17.7082 69.6062 18.9774L70.6057 20.7098C71.85 19.9918 73.4401 20.418 74.1574 21.661L75.8897 20.6614ZM62.2192 25.7828L52.6192 9.1556L50.8871 10.1556L60.4871 26.7828L62.2192 25.7828ZM44.652 13.7556L53.052 28.3044L54.784 27.3044L46.384 12.7556L44.652 13.7556Z" fill="white"/>
<path d="M83.8502 17.4438C80.7146 18.9822 76.8194 18.447 74.2106 15.8394C70.9298 12.5586 70.9298 7.2402 74.2106 3.9606C77.4914 0.6798 82.8098 0.6798 86.0906 3.9606C87.731 5.601 88.5506 7.75021 88.5506 9.89941V14.7006" stroke="#60C2A4" stroke-width="2" stroke-miterlimit="10" stroke-linecap="round" stroke-linejoin="round"/>
<path d="M92.1502 11.0991L88.5502 14.6991L84.9502 11.0991" stroke="#60C2A4" stroke-width="2" stroke-miterlimit="10" stroke-linecap="round" stroke-linejoin="round"/>
<path d="M45.06 93.4C45.06 96.632 47.668 99.208 51.028 99.208C54.372 99.208 56.98 96.632 56.98 93.4C56.98 90.168 54.372 87.592 51.028 87.592C47.668 87.592 45.06 90.168 45.06 93.4ZM47.268 93.4C47.268 91.24 48.932 89.576 51.028 89.576C53.124 89.576 54.772 91.24 54.772 93.4C54.772 95.576 53.124 97.224 51.028 97.224C48.932 97.224 47.268 95.576 47.268 93.4ZM62.8749 92.568V90.648H62.3149C61.4189 90.648 60.7629 91.016 60.3469 91.624V90.728H58.2669V99H60.3629V94.552C60.3629 93.288 61.1309 92.568 62.1229 92.568H62.8749ZM63.8919 99H65.9719V98.232C66.7079 98.856 67.6359 99.224 68.6439 99.224C71.1079 99.224 73.0599 97.256 73.0599 94.872C73.0599 92.472 71.1079 90.52 68.6439 90.52C67.6359 90.52 66.7239 90.888 65.9879 91.496V87.8H63.8919V99ZM65.9559 94.872C65.9559 93.464 67.0759 92.36 68.4679 92.36C69.8439 92.36 70.9799 93.464 70.9799 94.872C70.9799 96.264 69.8439 97.4 68.4679 97.4C67.0759 97.4 65.9559 96.264 65.9559 94.872ZM75.2604 89.848C75.9164 89.848 76.4124 89.336 76.4124 88.68C76.4124 88.024 75.9164 87.528 75.2604 87.528C74.6044 87.528 74.0764 88.024 74.0764 88.68C74.0764 89.336 74.6044 89.848 75.2604 89.848ZM76.3004 90.728H74.2044V99H76.3004V90.728ZM81.0636 99H82.6956V97.192H81.6556C81.1756 97.192 80.8716 96.984 80.8716 96.552V92.536H82.6956V90.728H80.8716V88.328H78.7916V90.728H77.1756V92.536H78.7916V96.92C78.7916 98.104 79.5596 99 81.0636 99Z" fill="white"/>
</svg>
