<svg width="128" height="103" viewBox="0 0 128 103" fill="none" xmlns="http://www.w3.org/2000/svg">
<path d="M68.6 25.4001V23.0001C68.6 23.0001 68.6 17.6235 68.6 12M68.6 12C68.6 11.0627 68.6 6.2001 68.6 6.2001C68.6 4.2117 66.9884 2.6001 65 2.6001C63.0116 2.6001 61.4 4.2117 61.4 6.2001V7.4001V23.0001V8.6001C61.4 6.6117 59.7884 5.0001 57.8 5.0001C55.8116 5.0001 54.2 6.6117 54.2 8.6001V33.8001V27.8001C54.2 25.4001 52.5884 24.2001 50.6 24.2001C48.6116 24.2001 47 25.8117 47 27.8001V37.4001C47 47.3409 55.0592 55.4001 65 55.4001C74.9408 55.4001 83 47.3409 83 37.4001V27.8001C83 25.8117 81.3884 24.2001 79.4 24.2001C77.4116 24.2001 75.8 25.8117 75.8 27.8001V12C75.8 9.8999 74.5 8 72.5 8C70.2798 8 68.6 9.8999 68.6 12Z" stroke="white" stroke-width="2" stroke-miterlimit="10" stroke-linecap="round" stroke-linejoin="round"/>
<path d="M90.2 6.6L86.6 3L83 6.6M86.6 19.7999V5.3999M86.6 19.7999L90.2 16.2M86.6 19.7999L83 16.2" stroke="#60C2A4" stroke-width="2" stroke-miterlimit="10" stroke-linecap="round" stroke-linejoin="round"/>
<path d="M37.432 99L37.4 89.96L41.064 99H42.584L46.248 89.944L46.232 99H47.864V87.8H45.512L41.848 96.872L38.2 87.8H35.816V99H37.432ZM49.2475 96.744C49.2475 98.168 50.4315 99.176 52.0315 99.176C53.1195 99.176 54.0315 98.728 54.5755 97.976C54.7835 98.616 55.3595 99 56.1435 99H56.9435V97.576H56.5275C56.2075 97.576 56.0475 97.416 56.0475 97.112V93.432C56.0475 91.768 54.8475 90.696 53.0075 90.696C51.7915 90.696 50.7195 91.048 49.8715 91.768L50.5915 92.936C51.2795 92.392 51.9995 92.152 52.7835 92.152C53.8555 92.152 54.4635 92.712 54.4635 93.64V94.168L51.9195 94.36C50.2235 94.472 49.2475 95.32 49.2475 96.744ZM50.7995 96.728C50.7995 96.056 51.2635 95.656 52.1595 95.592L54.4635 95.4V96.072C54.4635 97.096 53.5195 97.912 52.3515 97.912C51.4395 97.912 50.7995 97.432 50.7995 96.728ZM58.1352 90.84V102.216H59.7512V97.976C60.4872 98.728 61.5113 99.176 62.6473 99.176C65.0473 99.176 66.9353 97.288 66.9353 94.92C66.9353 92.568 65.0473 90.648 62.6473 90.648C61.5113 90.648 60.4712 91.112 59.7352 91.864V90.84H58.1352ZM59.7192 94.92C59.7192 93.352 60.9672 92.088 62.5352 92.088C64.0712 92.088 65.3352 93.352 65.3352 94.92C65.3352 96.488 64.0712 97.752 62.5352 97.752C60.9832 97.752 59.7192 96.488 59.7192 94.92ZM71.2569 89.272H74.7449V99H76.4249V89.272H79.9289V87.8H71.2569V89.272ZM82.0094 89.704C82.5374 89.704 82.9534 89.272 82.9534 88.728C82.9534 88.2 82.5374 87.768 82.0094 87.768C81.4654 87.768 81.0334 88.2 81.0334 88.728C81.0334 89.272 81.4654 89.704 82.0094 89.704ZM82.8094 90.84H81.1934V99H82.8094V90.84ZM86.1569 99V87.8H84.5409V99H86.1569ZM90.7844 99H92.3364V97.576H91.2644C90.7684 97.576 90.4644 97.336 90.4644 96.888V92.264H92.3364V90.84H90.4644V88.44H88.8484V90.84H87.2964V92.264H88.8484V97.24C88.8484 98.264 89.5364 99 90.7844 99Z" fill="#CDCFD6"/>
</svg>
