<svg width="108" height="108" viewBox="0 0 108 108" xmlns="http://www.w3.org/2000/svg">
<g clip-path="url(#clip0_2148_33431)">
<path d="M58.0706 47.2288C56.9226 47.8912 56.5298 49.3592 57.1922 50.5072L56.3922 49.1216C55.7298 47.9736 54.2619 47.58 53.1139 48.2432C51.9659 48.9064 51.5722 50.3736 52.2354 51.5216L51.4354 50.136L45.8354 40.4368C45.173 39.2888 43.705 38.8952 42.557 39.5584C41.409 40.2216 41.0155 41.6888 41.6787 42.8368L42.0787 43.5296L47.2787 52.536L42.4787 44.2224C41.8163 43.0744 40.3482 42.6808 39.2002 43.344C38.0522 44.0072 37.6594 45.4744 38.3218 46.6224L46.7218 61.1712L44.7218 57.7072C43.9218 56.3216 42.5915 56.1656 41.4435 56.8288C40.2955 57.4912 39.9026 58.9592 40.565 60.1072L43.765 65.6496C47.0786 71.3888 54.4178 73.356 60.157 70.0416C65.8962 66.7272 67.8634 59.3888 64.549 53.6496L61.349 48.1072C60.6866 46.9592 59.2186 46.5664 58.0706 47.2288Z" stroke="" fill="transparent" stroke-miterlimit="10" stroke-linecap="round" stroke-linejoin="round"/>
<path d="M68.5668 45.6292C66.4764 46.6548 63.8796 46.298 62.1404 44.5596C59.9532 42.3724 59.9532 38.8268 62.1404 36.6404C64.3276 34.4532 67.8732 34.4532 70.0604 36.6404C71.154 37.734 71.7004 39.1668 71.7004 40.5996V43.8004" stroke="#60C2A4" fill="transparent" stroke-miterlimit="10" stroke-linecap="round" stroke-linejoin="round"/>
<path d="M74.1008 41.3994L71.7008 43.7994L69.3008 41.3994" stroke="#60C2A4" fill="transparent" stroke-miterlimit="10" stroke-linecap="round" stroke-linejoin="round"/>
</g>
<defs>
<clipPath id="clip0_2148_33431">
<rect width="40" height="40" fill="white" transform="translate(34 34)"/>
</clipPath>
</defs>
</svg>
