<svg width="108" height="108" viewBox="0 0 108 108" xmlns="http://www.w3.org/2000/svg">
<path fill-rule="evenodd" clip-rule="evenodd" d="M51.7179 37.2883C52.0848 36.0056 53.266 35.0668 54.6667 35.0668C56.3605 35.0668 57.7333 36.4396 57.7333 38.1334H57.0667H56.4C56.4 37.176 55.6241 36.4001 54.6667 36.4001C53.7093 36.4001 52.9333 37.176 52.9333 38.1334V49.3334C52.9333 49.7016 52.6349 50.0001 52.2667 50.0001C51.8985 50.0001 51.6 49.7016 51.6 49.3334V39.7334C51.6 38.776 50.8241 38.0001 49.8667 38.0001C48.9093 38.0001 48.1333 38.776 48.1333 39.7334V56.5334C48.1333 56.9016 47.8349 57.2001 47.4667 57.2001C47.0985 57.2001 46.8 56.9016 46.8 56.5334V52.5334C46.8 51.8911 46.5896 51.4794 46.3121 51.2238C46.0257 50.96 45.5991 50.8001 45.0667 50.8001C44.1093 50.8001 43.3333 51.576 43.3333 52.5334V58.9334C43.3333 65.1924 48.4077 70.2668 54.6667 70.2668C60.9257 70.2668 66 65.1924 66 58.9334V52.5334C66 51.576 65.2241 50.8001 64.2667 50.8001C63.3093 50.8001 62.5333 51.576 62.5333 52.5334C62.5333 52.9016 62.2349 53.2001 61.8667 53.2001C61.4985 53.2001 61.2 52.9016 61.2 52.5334V42C61.2 40.8042 60.4869 40 59.6667 40C58.5893 40 57.7333 40.9326 57.7333 42V49.3328L57.0667 49.3334L56.4 49.3334V38.1334H57.0667H57.7333V39.318C58.2652 38.9134 58.9275 38.6667 59.6667 38.6667C61.5131 38.6667 62.5333 40.3958 62.5333 42V50.0032C63.0264 49.6648 63.6234 49.4668 64.2667 49.4668C65.9605 49.4668 67.3333 50.8396 67.3333 52.5334V58.9334C67.3333 65.9288 61.6621 71.6001 54.6667 71.6001C47.6713 71.6001 42 65.9288 42 58.9334V52.5334C42 50.8396 43.3729 49.4668 45.0667 49.4668C45.6832 49.4668 46.2879 49.6119 46.8 49.9283V39.7334C46.8 38.0396 48.1729 36.6668 49.8667 36.6668C50.5621 36.6668 51.2035 36.8982 51.7179 37.2883ZM57.0667 49.3334L56.4 49.3334V50.9334C56.4 51.3016 56.6985 51.6001 57.0667 51.6001C57.4349 51.6001 57.7333 51.3016 57.7333 50.9334V49.3328L57.0667 49.3334Z" fill="" stroke="transparent"/>
<path fill-rule="evenodd" clip-rule="evenodd" d="M68.5953 35.5286C68.8556 35.2683 69.2777 35.2683 69.5381 35.5286L71.9381 37.9286C72.1984 38.189 72.1984 38.6111 71.9381 38.8714C71.6777 39.1318 71.2556 39.1318 70.9953 38.8714L69.7333 37.6095V45.5905L70.9953 44.3286C71.2556 44.0683 71.6777 44.0683 71.9381 44.3286C72.1984 44.589 72.1984 45.0111 71.9381 45.2714L69.538 47.6714C69.2777 47.9317 68.8556 47.9317 68.5952 47.6714L66.1953 45.2714C65.9349 45.0111 65.9349 44.589 66.1953 44.3286C66.4556 44.0683 66.8777 44.0683 67.1381 44.3286L68.4 45.5905V37.6095L67.1381 38.8714C66.8777 39.1318 66.4556 39.1318 66.1953 38.8714C65.9349 38.6111 65.9349 38.189 66.1953 37.9286L68.5953 35.5286Z" fill="#60C2A4" stroke="transparent"/>
</svg>
